<svg width="338" height="259" viewBox="0 0 338 259" fill="none" xmlns="http://www.w3.org/2000/svg">
<g filter="url(#filter0_d_106_578)">
<g clip-path="url(#clip0_106_578)">
<rect x="4" width="330" height="251" rx="20" fill="white"/>
<path d="M85 41.5C85 58.897 71.1208 73 54 73C36.8792 73 23 58.897 23 41.5C23 24.103 36.8792 10 54 10C71.1208 10 85 24.103 85 41.5ZM33.0581 41.5C33.0581 53.2524 42.4341 62.7797 54 62.7797C65.5659 62.7797 74.9419 53.2524 74.9419 41.5C74.9419 29.7476 65.5659 20.2203 54 20.2203C42.4341 20.2203 33.0581 29.7476 33.0581 41.5Z" fill="#B0BCFE"/>
<path d="M54 15.1102C54 12.2879 56.3036 9.95657 59.0864 10.4269C61.4063 10.819 63.6802 11.479 65.8632 12.3978C69.6243 13.9808 73.0417 16.3011 75.9203 19.2261C78.7989 22.1512 81.0824 25.6237 82.6403 29.4455C84.1982 33.2672 85 37.3634 85 41.5C85 45.6366 84.1982 49.7328 82.6403 53.5545C81.0824 57.3763 78.7989 60.8488 75.9203 63.7739C73.0417 66.6989 69.6243 69.0192 65.8632 70.6022C63.6802 71.521 61.4062 72.181 59.0863 72.5731C56.3035 73.0434 54 70.7121 54 67.8898C54 65.0676 56.3219 62.8416 59.058 62.1497C60.0639 61.8953 61.0521 61.5648 62.0141 61.1598C64.5549 60.0904 66.8635 58.523 68.8081 56.547C70.7528 54.571 72.2954 52.2251 73.3478 49.6434C74.4002 47.0616 74.9419 44.2945 74.9419 41.5C74.9419 38.7055 74.4002 35.9384 73.3478 33.3566C72.2954 30.7749 70.7528 28.429 68.8082 26.453C66.8635 24.477 64.5549 22.9096 62.0141 21.8402C61.0521 21.4352 60.0639 21.1047 59.0581 20.8503C56.3219 20.1584 54 17.9324 54 15.1102Z" fill="#EF3124"/>
<g filter="url(#filter1_d_106_578)">
<ellipse cx="59.5" cy="68" rx="3.5" ry="3" fill="white"/>
</g>
<path d="M102.162 27V23.276H97.92V27H95.05V17.06H97.92V20.784H102.162V17.06H105.032V27H102.162ZM111.56 27V26.006C111.462 26.174 110.776 27.14 109.278 27.14C107.458 27.14 106.03 25.684 106.03 23.29C106.03 20.91 107.458 19.454 109.292 19.454C110.776 19.454 111.392 20.35 111.518 20.518V19.594H114.276V27H111.56ZM111.546 23.29C111.546 22.408 111.014 21.764 110.174 21.764C109.334 21.764 108.802 22.408 108.802 23.29C108.802 24.186 109.334 24.83 110.174 24.83C111.014 24.83 111.546 24.186 111.546 23.29ZM123.231 27.168C120.165 27.168 118.051 25.012 118.051 22.03C118.051 19.048 120.165 16.892 123.231 16.892C126.633 16.892 127.809 19.272 127.991 20.392H125.079C124.925 20.154 124.407 19.454 123.231 19.454C121.817 19.454 120.977 20.616 120.977 22.03C120.977 23.444 121.817 24.606 123.231 24.606C124.435 24.606 124.939 23.92 125.093 23.682H127.991C127.823 24.606 126.759 27.168 123.231 27.168ZM132.392 19.398C134.744 19.398 136.522 20.938 136.522 23.29C136.522 25.628 134.744 27.196 132.392 27.196C129.998 27.196 128.234 25.628 128.234 23.29C128.234 20.938 129.998 19.398 132.392 19.398ZM132.392 24.83C133.232 24.83 133.778 24.186 133.778 23.29C133.778 22.408 133.232 21.764 132.392 21.764C131.538 21.764 130.978 22.408 130.978 23.29C130.978 24.186 131.538 24.83 132.392 24.83ZM142.18 27V24.746L141.732 24.788C141.452 24.83 141.074 24.83 140.64 24.83C138.344 24.83 137.14 23.976 137.14 21.61V19.594H139.884V21.582C139.884 22.324 140.122 22.618 140.976 22.618C141.326 22.618 141.634 22.604 141.844 22.59L142.18 22.548V19.594H144.924V27H142.18ZM146.072 27V19.594H148.788V23.402L151.476 19.594H154.192V27H151.476V23.192L148.788 27H146.072ZM165.55 22.296H162.876C162.778 22.128 162.47 21.75 161.84 21.75C161.056 21.75 160.594 22.394 160.594 23.29C160.594 24.2 161.07 24.844 161.854 24.844C162.54 24.844 162.834 24.452 162.904 24.298H165.55C165.48 25.572 164.374 27.196 161.77 27.196C159.558 27.196 157.836 25.74 157.836 23.29C157.836 20.868 159.558 19.398 161.742 19.398C164.318 19.398 165.438 21.008 165.55 22.296ZM173.997 24.76V21.834H172.373L172.359 21.89C172.177 23.346 171.967 24.102 171.603 24.76H173.997ZM170.721 29.086H168.257V24.76H168.915C169.307 24.102 169.671 23.234 169.853 21.778L170.133 19.594H176.741V24.76H177.931V29.086H175.467V27H170.721V29.086ZM181.995 19.398C184.459 19.398 186.041 20.868 186.041 23.29V23.864H180.651C180.777 24.606 181.323 25.124 182.149 25.124C182.807 25.124 183.143 24.872 183.241 24.746H185.971C185.859 25.754 184.711 27.196 182.149 27.196C179.503 27.196 177.921 25.6 177.921 23.29C177.921 20.896 179.573 19.398 181.995 19.398ZM181.995 21.316C181.281 21.316 180.819 21.694 180.665 22.31H183.325C183.171 21.694 182.681 21.316 181.995 21.316ZM186.79 27V19.594H191.83C193.524 19.594 194.448 20.392 194.448 21.568C194.448 22.464 193.874 22.996 193.314 23.164C194 23.36 194.644 23.892 194.644 24.942C194.644 26.174 193.72 27 191.886 27H186.79ZM191.004 21.4H189.534V22.45H191.004C191.438 22.45 191.718 22.296 191.718 21.946C191.718 21.554 191.438 21.4 191.004 21.4ZM191.158 24.116H189.534V25.194H191.158C191.648 25.194 191.9 25.012 191.9 24.634C191.9 24.284 191.648 24.116 191.158 24.116ZM199.211 19.398C201.563 19.398 203.341 20.938 203.341 23.29C203.341 25.628 201.563 27.196 199.211 27.196C196.817 27.196 195.053 25.628 195.053 23.29C195.053 20.938 196.817 19.398 199.211 19.398ZM199.211 24.83C200.051 24.83 200.597 24.186 200.597 23.29C200.597 22.408 200.051 21.764 199.211 21.764C198.357 21.764 197.797 22.408 197.797 23.29C197.797 24.186 198.357 24.83 199.211 24.83ZM209 27V24.746L208.552 24.788C208.272 24.83 207.894 24.83 207.46 24.83C205.164 24.83 203.96 23.976 203.96 21.61V19.594H206.704V21.582C206.704 22.324 206.942 22.618 207.796 22.618C208.146 22.618 208.454 22.604 208.664 22.59L209 22.548V19.594H211.744V27H209ZM212.891 27V19.594H215.663V22.478L218.225 19.594H221.571L218.407 23.108L221.767 27H218.253L215.663 23.892V27H212.891ZM226.672 27V26.006C226.574 26.174 225.888 27.14 224.39 27.14C222.57 27.14 221.142 25.684 221.142 23.29C221.142 20.91 222.57 19.454 224.404 19.454C225.888 19.454 226.504 20.35 226.63 20.518V19.594H229.388V27H226.672ZM226.658 23.29C226.658 22.408 226.126 21.764 225.286 21.764C224.446 21.764 223.914 22.408 223.914 23.29C223.914 24.186 224.446 24.83 225.286 24.83C226.126 24.83 226.658 24.186 226.658 23.29ZM230.529 27V19.594H234.393L235.989 23.318L237.557 19.594H241.351V27H238.677V22.128L236.745 26.986H234.995L233.035 22.128V27H230.529ZM242.493 27V19.594H245.209V23.402L247.897 19.594H250.613V27H247.897V23.192L245.209 27H242.493Z" fill="black"/>
<path d="M47.87 44.508H46.05V47H43.32V44.508H38.42V42.618L42.788 37.06H46.05V42.17H47.87V44.508ZM41.178 42.17H43.32V39.37L41.178 42.17ZM54.7522 44.536L52.7922 47H49.7402L52.5822 43.416C52.3022 43.64 51.8682 43.85 51.1822 43.85C49.3482 43.85 48.1862 42.492 48.1862 40.616C48.1862 38.46 49.7682 36.892 52.2882 36.892C54.7942 36.892 56.4182 38.446 56.4182 40.602C56.4182 42.17 55.8302 43.206 54.7522 44.536ZM50.9862 40.616C50.9862 41.358 51.5042 41.904 52.3022 41.904C53.0862 41.904 53.6182 41.372 53.6182 40.602C53.6182 39.86 53.0862 39.328 52.3022 39.328C51.5042 39.328 50.9862 39.846 50.9862 40.616ZM59.6925 42.352C58.1245 42.352 56.8925 41.162 56.8925 39.622C56.8925 38.096 58.1245 36.892 59.6925 36.892C61.2605 36.892 62.4925 38.096 62.4925 39.622C62.4925 41.162 61.2605 42.352 59.6925 42.352ZM58.4745 47L65.8805 37.06H68.1905L60.7845 47H58.4745ZM59.6925 40.434C60.1825 40.434 60.5045 40.07 60.5045 39.622C60.5045 39.174 60.1825 38.81 59.6925 38.81C59.2025 38.81 58.8805 39.174 58.8805 39.622C58.8805 40.07 59.2025 40.434 59.6925 40.434ZM66.9585 47.196C65.3905 47.196 64.1585 46.006 64.1585 44.466C64.1585 42.94 65.3905 41.736 66.9585 41.736C68.5265 41.736 69.7585 42.94 69.7585 44.466C69.7585 46.006 68.5265 47.196 66.9585 47.196ZM66.9585 45.278C67.4485 45.278 67.7705 44.914 67.7705 44.466C67.7705 44.018 67.4485 43.654 66.9585 43.654C66.4685 43.654 66.1465 44.018 66.1465 44.466C66.1465 44.914 66.4685 45.278 66.9585 45.278Z" fill="black"/>
<path d="M94.828 47V42.554H95.62V44.48L97.96 42.554H99.13L96.502 44.687L99.247 47H98.086L95.62 44.966V47H94.828ZM101.182 42.446C102.505 42.446 103.522 43.454 103.522 44.777C103.522 46.1 102.505 47.108 101.182 47.108C99.8505 47.108 98.8425 46.1 98.8425 44.777C98.8425 43.454 99.8505 42.446 101.182 42.446ZM101.182 46.352C102.073 46.352 102.676 45.668 102.676 44.777C102.676 43.886 102.073 43.202 101.182 43.202C100.291 43.202 99.6885 43.904 99.6885 44.777C99.6885 45.65 100.291 46.352 101.182 46.352ZM103.98 47V42.554H108.021V47H107.202V43.292H104.799V47H103.98ZM112.581 47H111.762V45.389H110.439L109.359 47H108.414L109.593 45.281C108.873 45.11 108.549 44.597 108.549 43.94C108.549 43.22 109.035 42.554 110.133 42.554H112.581V47ZM110.232 44.651H111.762V43.292H110.232C109.683 43.292 109.413 43.508 109.413 43.94C109.413 44.381 109.692 44.651 110.232 44.651ZM114.601 47V43.292H112.801V42.554H117.22V43.292H115.42V47H114.601ZM117.425 47V45.722H118.469V47H117.425ZM117.425 43.913V42.635H118.469V43.913H117.425Z" fill="#D5D5D5"/>
<path d="M175.853 42.446C177.176 42.446 178.193 43.454 178.193 44.777C178.193 46.1 177.176 47.108 175.853 47.108C174.521 47.108 173.513 46.1 173.513 44.777C173.513 43.454 174.521 42.446 175.853 42.446ZM175.853 46.352C176.744 46.352 177.347 45.668 177.347 44.777C177.347 43.886 176.744 43.202 175.853 43.202C174.962 43.202 174.359 43.904 174.359 44.777C174.359 45.65 174.962 46.352 175.853 46.352ZM178.65 47V42.554H182.691V47H181.872V43.292H179.469V47H178.65ZM183.481 47V42.554H184.3V45.902L186.883 42.554H187.702V47H186.883V43.625L184.3 47H183.481ZM192.537 43.94H191.709C191.637 43.796 191.304 43.202 190.413 43.202C189.594 43.202 189.009 43.904 189.009 44.777C189.009 45.65 189.594 46.352 190.422 46.352C191.322 46.352 191.655 45.767 191.727 45.614H192.537C192.492 45.929 192.015 47.108 190.422 47.108C189.153 47.108 188.163 46.091 188.163 44.777C188.163 43.463 189.144 42.446 190.413 42.446C192.024 42.446 192.465 43.607 192.537 43.94ZM196.359 47V46.235C196.233 46.46 195.801 47.108 194.784 47.108C193.614 47.108 192.615 46.244 192.615 44.777C192.615 43.337 193.614 42.446 194.784 42.446C195.765 42.446 196.242 43.049 196.359 43.292V42.554H197.178V47H196.359ZM196.377 44.777C196.377 43.886 195.801 43.202 194.937 43.202C194.037 43.202 193.461 43.886 193.461 44.777C193.461 45.668 194.037 46.352 194.937 46.352C195.801 46.352 196.377 45.668 196.377 44.777ZM197.972 47V42.554H198.791V44.372H201.284V42.554H202.103V47H201.284V45.11H198.791V47H197.972ZM202.899 47V42.554H203.718V45.902L206.301 42.554H207.12V47H206.301V43.625L203.718 47H202.899ZM209.84 42.446C211.145 42.446 212.108 43.418 212.108 44.876H208.409C208.454 45.704 209.048 46.352 209.921 46.352C210.812 46.352 211.172 45.875 211.244 45.731H212.054C211.982 46.118 211.415 47.108 209.921 47.108C208.544 47.108 207.581 46.082 207.581 44.777C207.581 43.436 208.544 42.446 209.84 42.446ZM209.84 43.148C209.12 43.148 208.634 43.544 208.463 44.192H211.199C210.992 43.517 210.515 43.148 209.84 43.148ZM212.516 47V45.722H213.56V47H212.516ZM212.516 43.913V42.635H213.56V43.913H212.516Z" fill="#D5D5D5"/>
<path d="M124.6 39.9L127.07 45.66L129.54 39.9H130.99V47H130.07V40.74L127.36 47.04H126.69L124 40.78V47H123.1V39.9H124.6ZM136.328 47V46.15C136.188 46.4 135.708 47.12 134.578 47.12C133.278 47.12 132.168 46.16 132.168 44.53C132.168 42.93 133.278 41.94 134.578 41.94C135.668 41.94 136.198 42.61 136.328 42.88V42.06H137.238V47H136.328ZM136.348 44.53C136.348 43.54 135.708 42.78 134.748 42.78C133.748 42.78 133.108 43.54 133.108 44.53C133.108 45.52 133.748 46.28 134.748 46.28C135.708 46.28 136.348 45.52 136.348 44.53ZM138.62 42.06H139.53V46.18H141.84V42.06H142.75V46.18H145.06V42.06H145.97V47H138.62V42.06ZM151.148 47V46.15C151.008 46.4 150.528 47.12 149.398 47.12C148.098 47.12 146.988 46.16 146.988 44.53C146.988 42.93 148.098 41.94 149.398 41.94C150.488 41.94 151.018 42.61 151.148 42.88V42.06H152.058V47H151.148ZM151.168 44.53C151.168 43.54 150.528 42.78 149.568 42.78C148.568 42.78 147.928 43.54 147.928 44.53C147.928 45.52 148.568 46.28 149.568 46.28C150.528 46.28 151.168 45.52 151.168 44.53ZM153.9 49.14H153.16C153.52 48.54 153.89 47.81 153.92 47H153.38V45.58H154.54V46.92C154.54 47.81 154.19 48.63 153.9 49.14ZM123.1 59V51.9H126.79C128.36 51.9 129.18 52.64 129.18 53.95C129.18 55.2 128.36 56.04 126.79 56.04H124.07V59H123.1ZM126.82 52.8H124.07V55.14H126.82C127.74 55.14 128.18 54.65 128.18 53.97C128.18 53.22 127.74 52.8 126.82 52.8ZM130.077 59V54.06H130.987V57.78L133.857 54.06H134.767V59H133.857V55.25L130.987 59H130.077ZM137.509 59V54.88H135.509V54.06H140.419V54.88H138.419V59H137.509ZM141.137 59V54.06H142.017V56.2L144.617 54.06H145.917L142.997 56.43L146.047 59H144.757L142.017 56.74V59H141.137ZM150.267 59V58.15C150.127 58.4 149.647 59.12 148.517 59.12C147.217 59.12 146.107 58.16 146.107 56.53C146.107 54.93 147.217 53.94 148.517 53.94C149.607 53.94 150.137 54.61 150.267 54.88V54.06H151.177V59H150.267ZM150.287 56.53C150.287 55.54 149.647 54.78 148.687 54.78C147.687 54.78 147.047 55.54 147.047 56.53C147.047 57.52 147.687 58.28 148.687 58.28C149.647 58.28 150.287 57.52 150.287 56.53ZM153.019 61.14H152.279C152.639 60.54 153.009 59.81 153.039 59H152.499V57.58H153.659V58.92C153.659 59.81 153.309 60.63 153.019 61.14ZM128.65 71L127.86 69.29H124.08L123.29 71H122.33L125.61 63.86H126.38L129.67 71H128.65ZM124.48 68.41H127.46L125.97 65.17L124.48 68.41ZM130.438 71V66.06H131.348V68.08H134.118V66.06H135.028V71H134.118V68.9H131.348V71H130.438ZM140.603 71H139.693V69.21H138.223L137.023 71H135.973L137.283 69.09C136.483 68.9 136.123 68.33 136.123 67.6C136.123 66.8 136.663 66.06 137.883 66.06H140.603V71ZM137.993 68.39H139.693V66.88H137.993C137.383 66.88 137.083 67.12 137.083 67.6C137.083 68.09 137.393 68.39 137.993 68.39Z" fill="black"/>
<path d="M224.1 46.1V40.8H220.73L220.4 43.94C220.29 44.87 220.14 45.66 219.91 46.1H224.1ZM219.9 39.9H225.07V46.1H226.17V48.61H225.3V47H218.97V48.61H218.1V46.1H218.89C219.2 45.63 219.37 44.83 219.48 43.87L219.9 39.9ZM228.949 41.94C230.399 41.94 231.469 43.02 231.469 44.64H227.359C227.409 45.56 228.069 46.28 229.039 46.28C230.029 46.28 230.429 45.75 230.509 45.59H231.409C231.329 46.02 230.699 47.12 229.039 47.12C227.509 47.12 226.439 45.98 226.439 44.53C226.439 43.04 227.509 41.94 228.949 41.94ZM228.949 42.72C228.149 42.72 227.609 43.16 227.419 43.88H230.459C230.229 43.13 229.699 42.72 228.949 42.72ZM232.432 47V42.06H235.032C235.962 42.06 236.732 42.45 236.732 43.36C236.732 43.99 236.362 44.33 235.992 44.45C236.462 44.57 236.892 44.91 236.892 45.54C236.892 46.42 236.162 47 235.042 47H232.432ZM235.032 42.86H233.342V44.08H235.032C235.502 44.08 235.832 43.89 235.832 43.44C235.832 43.08 235.542 42.86 235.032 42.86ZM235.062 44.88H233.342V46.2H235.052C235.642 46.2 235.942 45.97 235.942 45.5C235.942 45.15 235.672 44.88 235.062 44.88ZM240.217 41.94C241.687 41.94 242.817 43.06 242.817 44.53C242.817 46 241.687 47.12 240.217 47.12C238.737 47.12 237.617 46 237.617 44.53C237.617 43.06 238.737 41.94 240.217 41.94ZM240.217 46.28C241.207 46.28 241.877 45.52 241.877 44.53C241.877 43.54 241.207 42.78 240.217 42.78C239.227 42.78 238.557 43.56 238.557 44.53C238.557 45.5 239.227 46.28 240.217 46.28ZM247.166 47V45.12C247.046 45.15 246.916 45.17 246.766 45.19C246.516 45.22 246.166 45.25 245.736 45.25C244.376 45.25 243.636 44.73 243.636 43.36V42.06H244.546V43.26C244.546 44.03 244.806 44.44 245.736 44.44C246.166 44.44 246.526 44.41 246.776 44.38L247.166 44.32V42.06H248.076V47H247.166ZM249.438 47V42.06H250.318V44.2L252.918 42.06H254.218L251.298 44.43L254.348 47H253.058L250.318 44.74V47H249.438ZM254.866 47V42.06H255.776V45.78L258.646 42.06H259.556V47H258.646V43.25L255.776 47H254.866ZM261.398 49.14H260.658C261.018 48.54 261.388 47.81 261.418 47H260.878V45.58H262.038V46.92C262.038 47.81 261.688 48.63 261.398 49.14ZM266.864 47V42.88H264.864V42.06H269.774V42.88H267.774V47H266.864ZM274.117 47V46.15C273.977 46.4 273.497 47.12 272.367 47.12C271.067 47.12 269.957 46.16 269.957 44.53C269.957 42.93 271.067 41.94 272.367 41.94C273.457 41.94 273.987 42.61 274.117 42.88V42.06H275.027V47H274.117ZM274.137 44.53C274.137 43.54 273.497 42.78 272.537 42.78C271.537 42.78 270.897 43.54 270.897 44.53C270.897 45.52 271.537 46.28 272.537 46.28C273.497 46.28 274.137 45.52 274.137 44.53ZM276.409 47V42.06H277.619L279.589 45.95L281.559 42.06H282.729V47H281.839V43.12L279.859 47.03H279.229L277.269 43.16V47H276.409ZM218.94 59V54.06H220.15L222.12 57.95L224.09 54.06H225.26V59H224.37V55.12L222.39 59.03H221.76L219.8 55.16V59H218.94ZM228.873 53.94C230.343 53.94 231.473 55.06 231.473 56.53C231.473 58 230.343 59.12 228.873 59.12C227.393 59.12 226.273 58 226.273 56.53C226.273 55.06 227.393 53.94 228.873 53.94ZM228.873 58.28C229.863 58.28 230.533 57.52 230.533 56.53C230.533 55.54 229.863 54.78 228.873 54.78C227.883 54.78 227.213 55.56 227.213 56.53C227.213 57.5 227.883 58.28 228.873 58.28ZM233.381 58.2V61.24H232.481V54.06H233.381V54.91C233.491 54.66 234.071 53.94 235.181 53.94C236.501 53.94 237.611 54.9 237.611 56.53C237.611 58.17 236.501 59.12 235.181 59.12C234.101 59.12 233.491 58.44 233.381 58.2ZM233.361 56.53C233.361 57.52 234.021 58.28 235.021 58.28C236.021 58.28 236.681 57.52 236.681 56.53C236.681 55.54 236.021 54.78 235.021 54.78C234.021 54.78 233.361 55.54 233.361 56.53ZM240.771 53.94C242.221 53.94 243.291 55.02 243.291 56.64H239.181C239.231 57.56 239.891 58.28 240.861 58.28C241.851 58.28 242.251 57.75 242.331 57.59H243.231C243.151 58.02 242.521 59.12 240.861 59.12C239.331 59.12 238.261 57.98 238.261 56.53C238.261 55.04 239.331 53.94 240.771 53.94ZM240.771 54.72C239.971 54.72 239.431 55.16 239.241 55.88H242.281C242.051 55.13 241.521 54.72 240.771 54.72ZM246.401 59V54.06H247.311V57.78L250.181 54.06H251.091V59H250.181V55.25L247.311 59H246.401ZM254.78 59V51.9H260.34V52.8H255.74V54.78H258.49V55.68H255.74V58.1H260.74V59H254.78ZM261.59 59V54.06H265.27V54.88H262.5V59H261.59ZM268.047 53.94C269.517 53.94 270.647 55.06 270.647 56.53C270.647 58 269.517 59.12 268.047 59.12C266.567 59.12 265.447 58 265.447 56.53C265.447 55.06 266.567 53.94 268.047 53.94ZM268.047 58.28C269.037 58.28 269.707 57.52 269.707 56.53C269.707 55.54 269.037 54.78 268.047 54.78C267.057 54.78 266.387 55.56 266.387 56.53C266.387 57.5 267.057 58.28 268.047 58.28ZM272.555 58.2V61.24H271.655V54.06H272.555V54.91C272.665 54.66 273.245 53.94 274.355 53.94C275.675 53.94 276.785 54.9 276.785 56.53C276.785 58.17 275.675 59.12 274.355 59.12C273.275 59.12 272.665 58.44 272.555 58.2ZM272.535 56.53C272.535 57.52 273.195 58.28 274.195 58.28C275.195 58.28 275.855 57.52 275.855 56.53C275.855 55.54 275.195 54.78 274.195 54.78C273.195 54.78 272.535 55.54 272.535 56.53ZM219.1 71V63.9H220.07V67.18L224.16 63.9H225.53L221.18 67.38L225.71 71H224.32L220.07 67.7V71H219.1ZM227.143 70.2V73.24H226.243V66.06H227.143V66.91C227.253 66.66 227.833 65.94 228.943 65.94C230.263 65.94 231.373 66.9 231.373 68.53C231.373 70.17 230.263 71.12 228.943 71.12C227.863 71.12 227.253 70.44 227.143 70.2ZM227.123 68.53C227.123 69.52 227.783 70.28 228.783 70.28C229.783 70.28 230.443 69.52 230.443 68.53C230.443 67.54 229.783 66.78 228.783 66.78C227.783 66.78 227.123 67.54 227.123 68.53ZM232.393 71V66.06H233.303V69.78L236.173 66.06H237.083V71H236.173V67.25L233.303 71H232.393ZM241.825 70.18V66.88H239.805L239.675 67.98C239.525 69.13 239.415 69.77 239.145 70.18H241.825ZM238.485 72.49H237.675V70.18H238.265C238.575 69.78 238.715 69.14 238.865 67.91L239.075 66.06H242.735V70.18H243.635V72.49H242.825V71H238.485V72.49ZM244.515 68.68V63.9H245.415V68.68H244.515ZM244.385 71V69.58H245.545V71H244.385ZM247.375 68.68V63.9H248.275V68.68H247.375ZM247.245 71V69.58H248.405V71H247.245ZM250.234 68.68V63.9H251.134V68.68H250.234ZM250.104 71V69.58H251.264V71H250.104Z" fill="black"/>
<path d="M35 104H288" stroke="#DFE0E5" stroke-width="13" stroke-linecap="round"/>
<path d="M35 104H169" stroke="url(#paint0_linear_106_578)" stroke-width="13" stroke-linecap="round"/>
<g filter="url(#filter2_d_106_578)">
<circle cx="166" cy="104" r="4" fill="white"/>
</g>
<path d="M258.128 83.956L254.576 91H251.888L255.224 84.592H251.408V82.48H258.128V83.956ZM265.579 88.924V91H258.679V89.38L261.991 86.512C262.507 86.044 262.747 85.744 262.747 85.276C262.747 84.808 262.459 84.46 261.895 84.46C261.355 84.46 261.043 84.856 261.043 85.396V85.804H258.703V85.324C258.703 83.68 259.807 82.336 261.895 82.336C264.007 82.336 265.183 83.464 265.183 85.156C265.183 86.476 264.439 87.232 263.371 88.132L262.435 88.924H265.579ZM272.1 82.312C274.248 82.312 275.52 83.572 275.52 85.54V87.94C275.52 89.908 274.248 91.168 272.1 91.168C269.952 91.168 268.68 89.908 268.68 87.94V85.54C268.68 83.572 269.952 82.312 272.1 82.312ZM272.1 89.008C272.784 89.008 273.12 88.54 273.12 87.868V85.612C273.12 84.94 272.784 84.472 272.1 84.472C271.416 84.472 271.08 84.94 271.08 85.612V87.868C271.08 88.54 271.416 89.008 272.1 89.008ZM280.046 82.312C282.194 82.312 283.466 83.572 283.466 85.54V87.94C283.466 89.908 282.194 91.168 280.046 91.168C277.898 91.168 276.626 89.908 276.626 87.94V85.54C276.626 83.572 277.898 82.312 280.046 82.312ZM280.046 89.008C280.73 89.008 281.066 88.54 281.066 87.868V85.612C281.066 84.94 280.73 84.472 280.046 84.472C279.362 84.472 279.026 84.94 279.026 85.612V87.868C279.026 88.54 279.362 89.008 280.046 89.008ZM287.992 82.312C290.14 82.312 291.412 83.572 291.412 85.54V87.94C291.412 89.908 290.14 91.168 287.992 91.168C285.844 91.168 284.572 89.908 284.572 87.94V85.54C284.572 83.572 285.844 82.312 287.992 82.312ZM287.992 89.008C288.676 89.008 289.012 88.54 289.012 87.868V85.612C289.012 84.94 288.676 84.472 287.992 84.472C287.308 84.472 286.972 84.94 286.972 85.612V87.868C286.972 88.54 287.308 89.008 287.992 89.008Z" fill="black"/>
<path d="M38.404 88.48C38.404 90.076 37.096 91.144 34.888 91.144C32.38 91.144 31.384 89.536 31.324 88.384H33.748C33.784 88.576 34.072 89.056 34.876 89.056C35.596 89.056 35.956 88.756 35.956 88.324C35.956 87.892 35.728 87.676 35.26 87.676H33.472V85.636H35.056C35.5 85.636 35.716 85.456 35.716 85.084C35.716 84.64 35.392 84.376 34.78 84.376C34.048 84.376 33.832 84.832 33.796 84.988H31.42C31.456 83.74 32.524 82.336 34.78 82.336C36.928 82.336 38.14 83.2 38.14 84.844C38.14 85.732 37.576 86.26 37.06 86.452C37.684 86.644 38.404 87.22 38.404 88.48ZM39.2936 87.448V82.48H45.5576V84.4H41.5376V85.624C41.7776 85.336 42.3176 85 43.1336 85C44.6936 85 45.8816 86.116 45.8816 87.928C45.8816 89.752 44.6456 91.144 42.3896 91.144C39.8816 91.144 38.8856 89.536 38.8856 88.24H41.3216C41.3576 88.528 41.6936 89.032 42.3896 89.032C43.0256 89.032 43.4576 88.552 43.4576 87.964C43.4576 87.328 43.0616 86.896 42.3896 86.896C41.7896 86.896 41.5256 87.292 41.4656 87.448H39.2936ZM55.9395 88.924V91H49.0395V89.38L52.3515 86.512C52.8675 86.044 53.1075 85.744 53.1075 85.276C53.1075 84.808 52.8195 84.46 52.2555 84.46C51.7155 84.46 51.4035 84.856 51.4035 85.396V85.804H49.0635V85.324C49.0635 83.68 50.1675 82.336 52.2555 82.336C54.3675 82.336 55.5435 83.464 55.5435 85.156C55.5435 86.476 54.7995 87.232 53.7315 88.132L52.7955 88.924H55.9395ZM63.359 88.684C63.359 90.172 62.147 91.144 60.023 91.144H59.651C57.527 91.144 56.315 90.172 56.315 88.684C56.315 87.436 57.119 86.824 57.695 86.632C57.191 86.44 56.447 85.9 56.447 84.712C56.447 83.308 57.587 82.336 59.663 82.336H60.011C62.087 82.336 63.227 83.308 63.227 84.712C63.227 85.9 62.483 86.44 61.979 86.632C62.555 86.824 63.359 87.436 63.359 88.684ZM59.891 84.16H59.783C59.219 84.16 58.835 84.448 58.835 84.976C58.835 85.492 59.219 85.792 59.783 85.792H59.891C60.455 85.792 60.839 85.492 60.839 84.976C60.839 84.448 60.455 84.16 59.891 84.16ZM59.915 87.568H59.759C59.195 87.568 58.763 87.88 58.763 88.444C58.763 89.008 59.195 89.32 59.759 89.32H59.915C60.479 89.32 60.911 89.008 60.911 88.444C60.911 87.88 60.479 87.568 59.915 87.568ZM67.6167 82.312C69.7647 82.312 71.0367 83.572 71.0367 85.54V87.94C71.0367 89.908 69.7647 91.168 67.6167 91.168C65.4687 91.168 64.1967 89.908 64.1967 87.94V85.54C64.1967 83.572 65.4687 82.312 67.6167 82.312ZM67.6167 89.008C68.3007 89.008 68.6367 88.54 68.6367 87.868V85.612C68.6367 84.94 68.3007 84.472 67.6167 84.472C66.9327 84.472 66.5967 84.94 66.5967 85.612V87.868C66.5967 88.54 66.9327 89.008 67.6167 89.008Z" fill="black"/>
<path d="M85 161.5C85 178.897 71.1208 193 54 193C36.8792 193 23 178.897 23 161.5C23 144.103 36.8792 130 54 130C71.1208 130 85 144.103 85 161.5ZM33.0581 161.5C33.0581 173.252 42.4341 182.78 54 182.78C65.5659 182.78 74.9419 173.252 74.9419 161.5C74.9419 149.748 65.5659 140.22 54 140.22C42.4341 140.22 33.0581 149.748 33.0581 161.5Z" fill="#B0BCFE"/>
<path d="M54 135.11C54 132.288 56.3036 129.957 59.0864 130.427C61.4063 130.819 63.6802 131.479 65.8632 132.398C69.6243 133.981 73.0417 136.301 75.9203 139.226C78.7989 142.151 81.0824 145.624 82.6403 149.445C84.1982 153.267 85 157.363 85 161.5C85 165.637 84.1982 169.733 82.6403 173.555C81.0824 177.376 78.7989 180.849 75.9203 183.774C73.0417 186.699 69.6243 189.019 65.8632 190.602C63.6802 191.521 61.4062 192.181 59.0863 192.573C56.3035 193.043 54 190.712 54 187.89C54 185.068 56.3219 182.842 59.058 182.15C60.0639 181.895 61.0521 181.565 62.0141 181.16C64.5549 180.09 66.8635 178.523 68.8081 176.547C70.7528 174.571 72.2954 172.225 73.3478 169.643C74.4002 167.062 74.9419 164.294 74.9419 161.5C74.9419 158.706 74.4002 155.938 73.3478 153.357C72.2954 150.775 70.7528 148.429 68.8082 146.453C66.8635 144.477 64.5549 142.91 62.0141 141.84C61.0521 141.435 60.0639 141.105 59.0581 140.85C56.3219 140.158 54 137.932 54 135.11Z" fill="#EF3124"/>
<g filter="url(#filter3_d_106_578)">
<ellipse cx="59.5" cy="188" rx="3.5" ry="3" fill="white"/>
</g>
<path d="M102.162 147V143.276H97.92V147H95.05V137.06H97.92V140.784H102.162V137.06H105.032V147H102.162ZM111.56 147V146.006C111.462 146.174 110.776 147.14 109.278 147.14C107.458 147.14 106.03 145.684 106.03 143.29C106.03 140.91 107.458 139.454 109.292 139.454C110.776 139.454 111.392 140.35 111.518 140.518V139.594H114.276V147H111.56ZM111.546 143.29C111.546 142.408 111.014 141.764 110.174 141.764C109.334 141.764 108.802 142.408 108.802 143.29C108.802 144.186 109.334 144.83 110.174 144.83C111.014 144.83 111.546 144.186 111.546 143.29ZM118.289 147V139.594H122.153L123.749 143.318L125.317 139.594H129.111V147H126.437V142.128L124.505 146.986H122.755L120.795 142.128V147H118.289ZM133.949 139.398C136.413 139.398 137.995 140.868 137.995 143.29V143.864H132.605C132.731 144.606 133.277 145.124 134.103 145.124C134.761 145.124 135.097 144.872 135.195 144.746H137.925C137.813 145.754 136.665 147.196 134.103 147.196C131.457 147.196 129.875 145.6 129.875 143.29C129.875 140.896 131.527 139.398 133.949 139.398ZM133.949 141.316C133.235 141.316 132.773 141.694 132.619 142.31H135.279C135.125 141.694 134.635 141.316 133.949 141.316ZM143.629 147V144.746L143.181 144.788C142.901 144.83 142.523 144.83 142.089 144.83C139.793 144.83 138.589 143.976 138.589 141.61V139.594H141.333V141.582C141.333 142.324 141.571 142.618 142.425 142.618C142.775 142.618 143.083 142.604 143.293 142.59L143.629 142.548V139.594H146.373V147H143.629ZM149.677 147V141.834H147.017V139.594H155.081V141.834H152.421V147H149.677ZM163.789 139.594L159.743 149.702H156.999L158.105 146.93L154.787 139.594H157.895L159.463 143.472L161.003 139.594H163.789Z" fill="black"/>
<path d="M46.778 164.578V167H38.728V165.11L42.592 161.764C43.194 161.218 43.474 160.868 43.474 160.322C43.474 159.776 43.138 159.37 42.48 159.37C41.85 159.37 41.486 159.832 41.486 160.462V160.938H38.756V160.378C38.756 158.46 40.044 156.892 42.48 156.892C44.944 156.892 46.316 158.208 46.316 160.182C46.316 161.722 45.448 162.604 44.202 163.654L43.11 164.578H46.778ZM54.9162 158.782L50.7722 167H47.6362L51.5282 159.524H47.0762V157.06H54.9162V158.782ZM58.1475 162.352C56.5795 162.352 55.3475 161.162 55.3475 159.622C55.3475 158.096 56.5795 156.892 58.1475 156.892C59.7155 156.892 60.9475 158.096 60.9475 159.622C60.9475 161.162 59.7155 162.352 58.1475 162.352ZM56.9295 167L64.3355 157.06H66.6455L59.2395 167H56.9295ZM58.1475 160.434C58.6375 160.434 58.9595 160.07 58.9595 159.622C58.9595 159.174 58.6375 158.81 58.1475 158.81C57.6575 158.81 57.3355 159.174 57.3355 159.622C57.3355 160.07 57.6575 160.434 58.1475 160.434ZM65.4135 167.196C63.8455 167.196 62.6135 166.006 62.6135 164.466C62.6135 162.94 63.8455 161.736 65.4135 161.736C66.9815 161.736 68.2135 162.94 68.2135 164.466C68.2135 166.006 66.9815 167.196 65.4135 167.196ZM65.4135 165.278C65.9035 165.278 66.2255 164.914 66.2255 164.466C66.2255 164.018 65.9035 163.654 65.4135 163.654C64.9235 163.654 64.6015 164.018 64.6015 164.466C64.6015 164.914 64.9235 165.278 65.4135 165.278Z" fill="black"/>
<path d="M94.828 169V164.554H95.62V166.48L97.96 164.554H99.13L96.502 166.687L99.247 169H98.086L95.62 166.966V169H94.828ZM101.182 164.446C102.505 164.446 103.522 165.454 103.522 166.777C103.522 168.1 102.505 169.108 101.182 169.108C99.8505 169.108 98.8425 168.1 98.8425 166.777C98.8425 165.454 99.8505 164.446 101.182 164.446ZM101.182 168.352C102.073 168.352 102.676 167.668 102.676 166.777C102.676 165.886 102.073 165.202 101.182 165.202C100.291 165.202 99.6885 165.904 99.6885 166.777C99.6885 167.65 100.291 168.352 101.182 168.352ZM103.98 169V164.554H108.021V169H107.202V165.292H104.799V169H103.98ZM112.581 169H111.762V167.389H110.439L109.359 169H108.414L109.593 167.281C108.873 167.11 108.549 166.597 108.549 165.94C108.549 165.22 109.035 164.554 110.133 164.554H112.581V169ZM110.232 166.651H111.762V165.292H110.232C109.683 165.292 109.413 165.508 109.413 165.94C109.413 166.381 109.692 166.651 110.232 166.651ZM114.601 169V165.292H112.801V164.554H117.22V165.292H115.42V169H114.601ZM117.425 169V167.722H118.469V169H117.425ZM117.425 165.913V164.635H118.469V165.913H117.425Z" fill="#D5D5D5"/>
<path d="M175.853 164.446C177.176 164.446 178.193 165.454 178.193 166.777C178.193 168.1 177.176 169.108 175.853 169.108C174.521 169.108 173.513 168.1 173.513 166.777C173.513 165.454 174.521 164.446 175.853 164.446ZM175.853 168.352C176.744 168.352 177.347 167.668 177.347 166.777C177.347 165.886 176.744 165.202 175.853 165.202C174.962 165.202 174.359 165.904 174.359 166.777C174.359 167.65 174.962 168.352 175.853 168.352ZM178.65 169V164.554H182.691V169H181.872V165.292H179.469V169H178.65ZM183.481 169V164.554H184.3V167.902L186.883 164.554H187.702V169H186.883V165.625L184.3 169H183.481ZM192.537 165.94H191.709C191.637 165.796 191.304 165.202 190.413 165.202C189.594 165.202 189.009 165.904 189.009 166.777C189.009 167.65 189.594 168.352 190.422 168.352C191.322 168.352 191.655 167.767 191.727 167.614H192.537C192.492 167.929 192.015 169.108 190.422 169.108C189.153 169.108 188.163 168.091 188.163 166.777C188.163 165.463 189.144 164.446 190.413 164.446C192.024 164.446 192.465 165.607 192.537 165.94ZM196.359 169V168.235C196.233 168.46 195.801 169.108 194.784 169.108C193.614 169.108 192.615 168.244 192.615 166.777C192.615 165.337 193.614 164.446 194.784 164.446C195.765 164.446 196.242 165.049 196.359 165.292V164.554H197.178V169H196.359ZM196.377 166.777C196.377 165.886 195.801 165.202 194.937 165.202C194.037 165.202 193.461 165.886 193.461 166.777C193.461 167.668 194.037 168.352 194.937 168.352C195.801 168.352 196.377 167.668 196.377 166.777ZM197.972 169V164.554H198.791V166.372H201.284V164.554H202.103V169H201.284V167.11H198.791V169H197.972ZM202.899 169V164.554H203.718V167.902L206.301 164.554H207.12V169H206.301V165.625L203.718 169H202.899ZM209.84 164.446C211.145 164.446 212.108 165.418 212.108 166.876H208.409C208.454 167.704 209.048 168.352 209.921 168.352C210.812 168.352 211.172 167.875 211.244 167.731H212.054C211.982 168.118 211.415 169.108 209.921 169.108C208.544 169.108 207.581 168.082 207.581 166.777C207.581 165.436 208.544 164.446 209.84 164.446ZM209.84 165.148C209.12 165.148 208.634 165.544 208.463 166.192H211.199C210.992 165.517 210.515 165.148 209.84 165.148ZM212.516 169V167.722H213.56V169H212.516ZM212.516 165.913V164.635H213.56V165.913H212.516Z" fill="#D5D5D5"/>
<path d="M124.6 161.9L127.07 167.66L129.54 161.9H130.99V169H130.07V162.74L127.36 169.04H126.69L124 162.78V169H123.1V161.9H124.6ZM136.328 169V168.15C136.188 168.4 135.708 169.12 134.578 169.12C133.278 169.12 132.168 168.16 132.168 166.53C132.168 164.93 133.278 163.94 134.578 163.94C135.668 163.94 136.198 164.61 136.328 164.88V164.06H137.238V169H136.328ZM136.348 166.53C136.348 165.54 135.708 164.78 134.748 164.78C133.748 164.78 133.108 165.54 133.108 166.53C133.108 167.52 133.748 168.28 134.748 168.28C135.708 168.28 136.348 167.52 136.348 166.53ZM138.62 164.06H139.53V168.18H141.84V164.06H142.75V168.18H145.06V164.06H145.97V169H138.62V164.06ZM151.148 169V168.15C151.008 168.4 150.528 169.12 149.398 169.12C148.098 169.12 146.988 168.16 146.988 166.53C146.988 164.93 148.098 163.94 149.398 163.94C150.488 163.94 151.018 164.61 151.148 164.88V164.06H152.058V169H151.148ZM151.168 166.53C151.168 165.54 150.528 164.78 149.568 164.78C148.568 164.78 147.928 165.54 147.928 166.53C147.928 167.52 148.568 168.28 149.568 168.28C150.528 168.28 151.168 167.52 151.168 166.53ZM153.9 171.14H153.16C153.52 170.54 153.89 169.81 153.92 169H153.38V167.58H154.54V168.92C154.54 169.81 154.19 170.63 153.9 171.14ZM123.1 181V173.9H124.07V179.7L128.52 173.9H129.49V181H128.52V175.18L124.07 181H123.1ZM131.444 178.8L131.714 176.06H135.394V181H134.484V176.88H132.444L132.254 178.86C132.104 180.38 131.714 181.07 130.664 181.07H130.394V180.25H130.514C131.194 180.25 131.334 179.92 131.444 178.8ZM137.684 177.65H139.184C140.554 177.65 141.154 178.37 141.154 179.31C141.154 180.19 140.554 181 139.194 181H136.774V176.06H137.684V177.65ZM139.084 178.47H137.684V180.18H139.084C139.804 180.18 140.194 179.91 140.194 179.31C140.194 178.79 139.804 178.47 139.084 178.47ZM146.226 181H145.316V179.21H143.846L142.646 181H141.596L142.906 179.09C142.106 178.9 141.746 178.33 141.746 177.6C141.746 176.8 142.286 176.06 143.506 176.06H146.226V181ZM143.616 178.39H145.316V176.88H143.616C143.006 176.88 142.706 177.12 142.706 177.6C142.706 178.09 143.016 178.39 143.616 178.39Z" fill="black"/>
<path d="M221.06 169H220.06L221.48 166.79L218.25 161.9H219.37L222.03 165.94L224.63 161.9H225.63L221.06 169ZM228.37 169V164.06H229.28V166.08H232.05V164.06H232.96V169H232.05V166.9H229.28V169H228.37ZM238.144 169V168.15C238.004 168.4 237.524 169.12 236.394 169.12C235.094 169.12 233.984 168.16 233.984 166.53C233.984 164.93 235.094 163.94 236.394 163.94C237.484 163.94 238.014 164.61 238.144 164.88V164.06H239.054V169H238.144ZM238.164 166.53C238.164 165.54 237.524 164.78 236.564 164.78C235.564 164.78 234.924 165.54 234.924 166.53C234.924 167.52 235.564 168.28 236.564 168.28C237.524 168.28 238.164 167.52 238.164 166.53ZM244.926 165.6H244.006C243.926 165.44 243.556 164.78 242.566 164.78C241.656 164.78 241.006 165.56 241.006 166.53C241.006 167.5 241.656 168.28 242.576 168.28C243.576 168.28 243.946 167.63 244.026 167.46H244.926C244.876 167.81 244.346 169.12 242.576 169.12C241.166 169.12 240.066 167.99 240.066 166.53C240.066 165.07 241.156 163.94 242.566 163.94C244.356 163.94 244.846 165.23 244.926 165.6ZM248.02 169V164.06H250.62C251.55 164.06 252.32 164.45 252.32 165.36C252.32 165.99 251.95 166.33 251.58 166.45C252.05 166.57 252.48 166.91 252.48 167.54C252.48 168.42 251.75 169 250.63 169H248.02ZM250.62 164.86H248.93V166.08H250.62C251.09 166.08 251.42 165.89 251.42 165.44C251.42 165.08 251.13 164.86 250.62 164.86ZM250.65 166.88H248.93V168.2H250.64C251.23 168.2 251.53 167.97 251.53 167.5C251.53 167.15 251.26 166.88 250.65 166.88ZM258.065 165.6H257.145C257.065 165.44 256.695 164.78 255.705 164.78C254.795 164.78 254.145 165.56 254.145 166.53C254.145 167.5 254.795 168.28 255.715 168.28C256.715 168.28 257.085 167.63 257.165 167.46H258.065C258.015 167.81 257.485 169.12 255.715 169.12C254.305 169.12 253.205 167.99 253.205 166.53C253.205 165.07 254.295 163.94 255.705 163.94C257.495 163.94 257.985 165.23 258.065 165.6ZM261.152 163.94C262.602 163.94 263.672 165.02 263.672 166.64H259.562C259.612 167.56 260.272 168.28 261.242 168.28C262.232 168.28 262.632 167.75 262.712 167.59H263.612C263.532 168.02 262.902 169.12 261.242 169.12C259.712 169.12 258.642 167.98 258.642 166.53C258.642 165.04 259.712 163.94 261.152 163.94ZM261.152 164.72C260.352 164.72 259.812 165.16 259.622 165.88H262.662C262.432 165.13 261.902 164.72 261.152 164.72ZM259.752 163.11V161.72H260.672V163.11H259.752ZM261.632 163.11V161.72H262.552V163.11H261.632ZM218.94 181V176.06H223.43V181H222.52V176.88H219.85V181H218.94ZM227.037 175.94C228.507 175.94 229.637 177.06 229.637 178.53C229.637 180 228.507 181.12 227.037 181.12C225.557 181.12 224.437 180 224.437 178.53C224.437 177.06 225.557 175.94 227.037 175.94ZM227.037 180.28C228.027 180.28 228.697 179.52 228.697 178.53C228.697 177.54 228.027 176.78 227.037 176.78C226.047 176.78 225.377 177.56 225.377 178.53C225.377 179.5 226.047 180.28 227.037 180.28ZM230.909 178.8L231.179 176.06H234.859V181H233.949V176.88H231.909L231.719 178.86C231.569 180.38 231.179 181.07 230.129 181.07H229.859V180.25H229.979C230.659 180.25 230.799 179.92 230.909 178.8ZM240.879 176.06L237.639 183.24H236.709L237.769 180.89L235.529 176.06H236.559L238.249 179.82L239.939 176.06H240.879ZM244.939 181V179.12C244.819 179.15 244.689 179.17 244.539 179.19C244.289 179.22 243.939 179.25 243.509 179.25C242.149 179.25 241.409 178.73 241.409 177.36V176.06H242.319V177.26C242.319 178.03 242.579 178.44 243.509 178.44C243.939 178.44 244.299 178.41 244.549 178.38L244.939 178.32V176.06H245.849V181H244.939ZM247.231 181V176.06H248.141V179.78L251.011 176.06H251.921V181H251.011V177.25L248.141 181H247.231ZM254.663 181V176.88H252.663V176.06H257.573V176.88H255.573V181H254.663ZM262.606 177.6H261.686C261.606 177.44 261.236 176.78 260.246 176.78C259.336 176.78 258.686 177.56 258.686 178.53C258.686 179.5 259.336 180.28 260.256 180.28C261.256 180.28 261.626 179.63 261.706 179.46H262.606C262.556 179.81 262.026 181.12 260.256 181.12C258.846 181.12 257.746 179.99 257.746 178.53C257.746 177.07 258.836 175.94 260.246 175.94C262.036 175.94 262.526 177.23 262.606 177.6ZM267.743 181H266.833V179.21H265.363L264.163 181H263.113L264.423 179.09C263.623 178.9 263.263 178.33 263.263 177.6C263.263 176.8 263.803 176.06 265.023 176.06H267.743V181ZM265.133 178.39H266.833V176.88H265.133C264.523 176.88 264.223 177.12 264.223 177.6C264.223 178.09 264.533 178.39 265.133 178.39Z" fill="black"/>
<path d="M35 224H288" stroke="#DFE0E5" stroke-width="13" stroke-linecap="round"/>
<path d="M35 224H110" stroke="url(#paint1_linear_106_578)" stroke-width="13" stroke-linecap="round"/>
<g filter="url(#filter4_d_106_578)">
<circle cx="107" cy="224" r="4" fill="white"/>
</g>
<path d="M249.86 202.444V211H247.46V205.084L245.396 206.236V204.016L248.06 202.444H249.86ZM257.868 208.924V211H250.968V209.38L254.28 206.512C254.796 206.044 255.036 205.744 255.036 205.276C255.036 204.808 254.748 204.46 254.184 204.46C253.644 204.46 253.332 204.856 253.332 205.396V205.804H250.992V205.324C250.992 203.68 252.096 202.336 254.184 202.336C256.296 202.336 257.472 203.464 257.472 205.156C257.472 206.476 256.728 207.232 255.66 208.132L254.724 208.924H257.868ZM261.928 202.312C264.076 202.312 265.348 203.572 265.348 205.54V207.94C265.348 209.908 264.076 211.168 261.928 211.168C259.78 211.168 258.508 209.908 258.508 207.94V205.54C258.508 203.572 259.78 202.312 261.928 202.312ZM261.928 209.008C262.612 209.008 262.948 208.54 262.948 207.868V205.612C262.948 204.94 262.612 204.472 261.928 204.472C261.244 204.472 260.908 204.94 260.908 205.612V207.868C260.908 208.54 261.244 209.008 261.928 209.008ZM272.335 202.312C274.483 202.312 275.755 203.572 275.755 205.54V207.94C275.755 209.908 274.483 211.168 272.335 211.168C270.187 211.168 268.915 209.908 268.915 207.94V205.54C268.915 203.572 270.187 202.312 272.335 202.312ZM272.335 209.008C273.019 209.008 273.355 208.54 273.355 207.868V205.612C273.355 204.94 273.019 204.472 272.335 204.472C271.651 204.472 271.315 204.94 271.315 205.612V207.868C271.315 208.54 271.651 209.008 272.335 209.008ZM280.281 202.312C282.429 202.312 283.701 203.572 283.701 205.54V207.94C283.701 209.908 282.429 211.168 280.281 211.168C278.133 211.168 276.861 209.908 276.861 207.94V205.54C276.861 203.572 278.133 202.312 280.281 202.312ZM280.281 209.008C280.965 209.008 281.301 208.54 281.301 207.868V205.612C281.301 204.94 280.965 204.472 280.281 204.472C279.597 204.472 279.261 204.94 279.261 205.612V207.868C279.261 208.54 279.597 209.008 280.281 209.008ZM288.227 202.312C290.375 202.312 291.647 203.572 291.647 205.54V207.94C291.647 209.908 290.375 211.168 288.227 211.168C286.079 211.168 284.807 209.908 284.807 207.94V205.54C284.807 203.572 286.079 202.312 288.227 202.312ZM288.227 209.008C288.911 209.008 289.247 208.54 289.247 207.868V205.612C289.247 204.94 288.911 204.472 288.227 204.472C287.543 204.472 287.207 204.94 287.207 205.612V207.868C287.207 208.54 287.543 209.008 288.227 209.008Z" fill="black"/>
<path d="M38.404 208.48C38.404 210.076 37.096 211.144 34.888 211.144C32.38 211.144 31.384 209.536 31.324 208.384H33.748C33.784 208.576 34.072 209.056 34.876 209.056C35.596 209.056 35.956 208.756 35.956 208.324C35.956 207.892 35.728 207.676 35.26 207.676H33.472V205.636H35.056C35.5 205.636 35.716 205.456 35.716 205.084C35.716 204.64 35.392 204.376 34.78 204.376C34.048 204.376 33.832 204.832 33.796 204.988H31.42C31.456 203.74 32.524 202.336 34.78 202.336C36.928 202.336 38.14 203.2 38.14 204.844C38.14 205.732 37.576 206.26 37.06 206.452C37.684 206.644 38.404 207.22 38.404 208.48ZM45.9776 208.924V211H39.0776V209.38L42.3896 206.512C42.9056 206.044 43.1456 205.744 43.1456 205.276C43.1456 204.808 42.8576 204.46 42.2936 204.46C41.7536 204.46 41.4416 204.856 41.4416 205.396V205.804H39.1016V205.324C39.1016 203.68 40.2056 202.336 42.2936 202.336C44.4056 202.336 45.5816 203.464 45.5816 205.156C45.5816 206.476 44.8376 207.232 43.7696 208.132L42.8336 208.924H45.9776ZM56.7466 208.864H55.1866V211H52.8466V208.864H48.6466V207.244L52.3906 202.48H55.1866V206.86H56.7466V208.864ZM51.0106 206.86H52.8466V204.46L51.0106 206.86ZM60.8428 202.312C62.9908 202.312 64.2628 203.572 64.2628 205.54V207.94C64.2628 209.908 62.9908 211.168 60.8428 211.168C58.6948 211.168 57.4228 209.908 57.4228 207.94V205.54C57.4228 203.572 58.6948 202.312 60.8428 202.312ZM60.8428 209.008C61.5268 209.008 61.8628 208.54 61.8628 207.868V205.612C61.8628 204.94 61.5268 204.472 60.8428 204.472C60.1588 204.472 59.8228 204.94 59.8228 205.612V207.868C59.8228 208.54 60.1588 209.008 60.8428 209.008ZM68.7886 202.312C70.9366 202.312 72.2086 203.572 72.2086 205.54V207.94C72.2086 209.908 70.9366 211.168 68.7886 211.168C66.6406 211.168 65.3686 209.908 65.3686 207.94V205.54C65.3686 203.572 66.6406 202.312 68.7886 202.312ZM68.7886 209.008C69.4726 209.008 69.8086 208.54 69.8086 207.868V205.612C69.8086 204.94 69.4726 204.472 68.7886 204.472C68.1046 204.472 67.7686 204.94 67.7686 205.612V207.868C67.7686 208.54 68.1046 209.008 68.7886 209.008Z" fill="black"/>
</g>
</g>
<defs>
<filter id="filter0_d_106_578" x="0" y="0" width="338" height="259" filterUnits="userSpaceOnUse" color-interpolation-filters="sRGB">
<feFlood flood-opacity="0" result="BackgroundImageFix"/>
<feColorMatrix in="SourceAlpha" type="matrix" values="0 0 0 0 0 0 0 0 0 0 0 0 0 0 0 0 0 0 127 0" result="hardAlpha"/>
<feOffset dy="4"/>
<feGaussianBlur stdDeviation="2"/>
<feComposite in2="hardAlpha" operator="out"/>
<feColorMatrix type="matrix" values="0 0 0 0 0 0 0 0 0 0 0 0 0 0 0 0 0 0 0.25 0"/>
<feBlend mode="normal" in2="BackgroundImageFix" result="effect1_dropShadow_106_578"/>
<feBlend mode="normal" in="SourceGraphic" in2="effect1_dropShadow_106_578" result="shape"/>
</filter>
<filter id="filter1_d_106_578" x="53" y="62" width="15" height="14" filterUnits="userSpaceOnUse" color-interpolation-filters="sRGB">
<feFlood flood-opacity="0" result="BackgroundImageFix"/>
<feColorMatrix in="SourceAlpha" type="matrix" values="0 0 0 0 0 0 0 0 0 0 0 0 0 0 0 0 0 0 127 0" result="hardAlpha"/>
<feOffset dx="1" dy="1"/>
<feGaussianBlur stdDeviation="2"/>
<feComposite in2="hardAlpha" operator="out"/>
<feColorMatrix type="matrix" values="0 0 0 0 0.756863 0 0 0 0 0.764706 0 0 0 0 0.92549 0 0 0 0.56 0"/>
<feBlend mode="normal" in2="BackgroundImageFix" result="effect1_dropShadow_106_578"/>
<feBlend mode="normal" in="SourceGraphic" in2="effect1_dropShadow_106_578" result="shape"/>
</filter>
<filter id="filter2_d_106_578" x="159" y="97" width="16" height="16" filterUnits="userSpaceOnUse" color-interpolation-filters="sRGB">
<feFlood flood-opacity="0" result="BackgroundImageFix"/>
<feColorMatrix in="SourceAlpha" type="matrix" values="0 0 0 0 0 0 0 0 0 0 0 0 0 0 0 0 0 0 127 0" result="hardAlpha"/>
<feOffset dx="1" dy="1"/>
<feGaussianBlur stdDeviation="2"/>
<feComposite in2="hardAlpha" operator="out"/>
<feColorMatrix type="matrix" values="0 0 0 0 0.756863 0 0 0 0 0.764706 0 0 0 0 0.92549 0 0 0 0.56 0"/>
<feBlend mode="normal" in2="BackgroundImageFix" result="effect1_dropShadow_106_578"/>
<feBlend mode="normal" in="SourceGraphic" in2="effect1_dropShadow_106_578" result="shape"/>
</filter>
<filter id="filter3_d_106_578" x="53" y="182" width="15" height="14" filterUnits="userSpaceOnUse" color-interpolation-filters="sRGB">
<feFlood flood-opacity="0" result="BackgroundImageFix"/>
<feColorMatrix in="SourceAlpha" type="matrix" values="0 0 0 0 0 0 0 0 0 0 0 0 0 0 0 0 0 0 127 0" result="hardAlpha"/>
<feOffset dx="1" dy="1"/>
<feGaussianBlur stdDeviation="2"/>
<feComposite in2="hardAlpha" operator="out"/>
<feColorMatrix type="matrix" values="0 0 0 0 0.756863 0 0 0 0 0.764706 0 0 0 0 0.92549 0 0 0 0.56 0"/>
<feBlend mode="normal" in2="BackgroundImageFix" result="effect1_dropShadow_106_578"/>
<feBlend mode="normal" in="SourceGraphic" in2="effect1_dropShadow_106_578" result="shape"/>
</filter>
<filter id="filter4_d_106_578" x="100" y="217" width="16" height="16" filterUnits="userSpaceOnUse" color-interpolation-filters="sRGB">
<feFlood flood-opacity="0" result="BackgroundImageFix"/>
<feColorMatrix in="SourceAlpha" type="matrix" values="0 0 0 0 0 0 0 0 0 0 0 0 0 0 0 0 0 0 127 0" result="hardAlpha"/>
<feOffset dx="1" dy="1"/>
<feGaussianBlur stdDeviation="2"/>
<feComposite in2="hardAlpha" operator="out"/>
<feColorMatrix type="matrix" values="0 0 0 0 0.756863 0 0 0 0 0.764706 0 0 0 0 0.92549 0 0 0 0.56 0"/>
<feBlend mode="normal" in2="BackgroundImageFix" result="effect1_dropShadow_106_578"/>
<feBlend mode="normal" in="SourceGraphic" in2="effect1_dropShadow_106_578" result="shape"/>
</filter>
<linearGradient id="paint0_linear_106_578" x1="35" y1="104.5" x2="169" y2="104.5" gradientUnits="userSpaceOnUse">
<stop stop-color="#C1C3EC"/>
<stop offset="1" stop-color="#EF3124"/>
</linearGradient>
<linearGradient id="paint1_linear_106_578" x1="35" y1="224.5" x2="110" y2="224.5" gradientUnits="userSpaceOnUse">
<stop stop-color="#C1C3EC"/>
<stop offset="1" stop-color="#EF3124"/>
</linearGradient>
<clipPath id="clip0_106_578">
<rect x="4" width="330" height="251" rx="20" fill="white"/>
</clipPath>
</defs>
</svg>
