<svg width="330" height="251" viewBox="0 0 330 251" fill="none" xmlns="http://www.w3.org/2000/svg">
<g clip-path="url(#clip0_121_1678)">
<rect width="330" height="251" rx="20" fill="#232323"/>
<path d="M81 41.5C81 58.897 67.1208 73 50 73C32.8792 73 19 58.897 19 41.5C19 24.103 32.8792 10 50 10C67.1208 10 81 24.103 81 41.5ZM29.0581 41.5C29.0581 53.2524 38.4341 62.7797 50 62.7797C61.5659 62.7797 70.9419 53.2524 70.9419 41.5C70.9419 29.7476 61.5659 20.2203 50 20.2203C38.4341 20.2203 29.0581 29.7476 29.0581 41.5Z" fill="#B0BCFE"/>
<path d="M50 15.1102C50 12.2879 52.3036 9.95657 55.0864 10.4269C57.4063 10.819 59.6802 11.479 61.8632 12.3978C65.6243 13.9808 69.0417 16.3011 71.9203 19.2261C74.7989 22.1512 77.0824 25.6237 78.6403 29.4455C80.1982 33.2672 81 37.3634 81 41.5C81 45.6366 80.1982 49.7328 78.6403 53.5545C77.0824 57.3763 74.7989 60.8488 71.9203 63.7739C69.0417 66.6989 65.6243 69.0192 61.8632 70.6022C59.6802 71.521 57.4062 72.181 55.0863 72.5731C52.3035 73.0434 50 70.7121 50 67.8898C50 65.0676 52.3219 62.8416 55.058 62.1497C56.0639 61.8953 57.0521 61.5648 58.0141 61.1598C60.5549 60.0904 62.8635 58.523 64.8081 56.547C66.7528 54.571 68.2954 52.2251 69.3478 49.6434C70.4002 47.0616 70.9419 44.2945 70.9419 41.5C70.9419 38.7055 70.4002 35.9384 69.3478 33.3566C68.2954 30.7749 66.7528 28.429 64.8082 26.453C62.8635 24.477 60.5549 22.9096 58.0141 21.8402C57.0521 21.4352 56.0639 21.1047 55.0581 20.8503C52.3219 20.1584 50 17.9324 50 15.1102Z" fill="#EF3124"/>
<g filter="url(#filter0_d_121_1678)">
<ellipse cx="55.5" cy="68" rx="3.5" ry="3" fill="white"/>
</g>
<path d="M98.162 27V23.276H93.92V27H91.05V17.06H93.92V20.784H98.162V17.06H101.032V27H98.162ZM107.56 27V26.006C107.462 26.174 106.776 27.14 105.278 27.14C103.458 27.14 102.03 25.684 102.03 23.29C102.03 20.91 103.458 19.454 105.292 19.454C106.776 19.454 107.392 20.35 107.518 20.518V19.594H110.276V27H107.56ZM107.546 23.29C107.546 22.408 107.014 21.764 106.174 21.764C105.334 21.764 104.802 22.408 104.802 23.29C104.802 24.186 105.334 24.83 106.174 24.83C107.014 24.83 107.546 24.186 107.546 23.29ZM119.231 27.168C116.165 27.168 114.051 25.012 114.051 22.03C114.051 19.048 116.165 16.892 119.231 16.892C122.633 16.892 123.809 19.272 123.991 20.392H121.079C120.925 20.154 120.407 19.454 119.231 19.454C117.817 19.454 116.977 20.616 116.977 22.03C116.977 23.444 117.817 24.606 119.231 24.606C120.435 24.606 120.939 23.92 121.093 23.682H123.991C123.823 24.606 122.759 27.168 119.231 27.168ZM128.392 19.398C130.744 19.398 132.522 20.938 132.522 23.29C132.522 25.628 130.744 27.196 128.392 27.196C125.998 27.196 124.234 25.628 124.234 23.29C124.234 20.938 125.998 19.398 128.392 19.398ZM128.392 24.83C129.232 24.83 129.778 24.186 129.778 23.29C129.778 22.408 129.232 21.764 128.392 21.764C127.538 21.764 126.978 22.408 126.978 23.29C126.978 24.186 127.538 24.83 128.392 24.83ZM138.18 27V24.746L137.732 24.788C137.452 24.83 137.074 24.83 136.64 24.83C134.344 24.83 133.14 23.976 133.14 21.61V19.594H135.884V21.582C135.884 22.324 136.122 22.618 136.976 22.618C137.326 22.618 137.634 22.604 137.844 22.59L138.18 22.548V19.594H140.924V27H138.18ZM142.072 27V19.594H144.788V23.402L147.476 19.594H150.192V27H147.476V23.192L144.788 27H142.072ZM161.55 22.296H158.876C158.778 22.128 158.47 21.75 157.84 21.75C157.056 21.75 156.594 22.394 156.594 23.29C156.594 24.2 157.07 24.844 157.854 24.844C158.54 24.844 158.834 24.452 158.904 24.298H161.55C161.48 25.572 160.374 27.196 157.77 27.196C155.558 27.196 153.836 25.74 153.836 23.29C153.836 20.868 155.558 19.398 157.742 19.398C160.318 19.398 161.438 21.008 161.55 22.296ZM169.997 24.76V21.834H168.373L168.359 21.89C168.177 23.346 167.967 24.102 167.603 24.76H169.997ZM166.721 29.086H164.257V24.76H164.915C165.307 24.102 165.671 23.234 165.853 21.778L166.133 19.594H172.741V24.76H173.931V29.086H171.467V27H166.721V29.086ZM177.995 19.398C180.459 19.398 182.041 20.868 182.041 23.29V23.864H176.651C176.777 24.606 177.323 25.124 178.149 25.124C178.807 25.124 179.143 24.872 179.241 24.746H181.971C181.859 25.754 180.711 27.196 178.149 27.196C175.503 27.196 173.921 25.6 173.921 23.29C173.921 20.896 175.573 19.398 177.995 19.398ZM177.995 21.316C177.281 21.316 176.819 21.694 176.665 22.31H179.325C179.171 21.694 178.681 21.316 177.995 21.316ZM182.79 27V19.594H187.83C189.524 19.594 190.448 20.392 190.448 21.568C190.448 22.464 189.874 22.996 189.314 23.164C190 23.36 190.644 23.892 190.644 24.942C190.644 26.174 189.72 27 187.886 27H182.79ZM187.004 21.4H185.534V22.45H187.004C187.438 22.45 187.718 22.296 187.718 21.946C187.718 21.554 187.438 21.4 187.004 21.4ZM187.158 24.116H185.534V25.194H187.158C187.648 25.194 187.9 25.012 187.9 24.634C187.9 24.284 187.648 24.116 187.158 24.116ZM195.211 19.398C197.563 19.398 199.341 20.938 199.341 23.29C199.341 25.628 197.563 27.196 195.211 27.196C192.817 27.196 191.053 25.628 191.053 23.29C191.053 20.938 192.817 19.398 195.211 19.398ZM195.211 24.83C196.051 24.83 196.597 24.186 196.597 23.29C196.597 22.408 196.051 21.764 195.211 21.764C194.357 21.764 193.797 22.408 193.797 23.29C193.797 24.186 194.357 24.83 195.211 24.83ZM205 27V24.746L204.552 24.788C204.272 24.83 203.894 24.83 203.46 24.83C201.164 24.83 199.96 23.976 199.96 21.61V19.594H202.704V21.582C202.704 22.324 202.942 22.618 203.796 22.618C204.146 22.618 204.454 22.604 204.664 22.59L205 22.548V19.594H207.744V27H205ZM208.891 27V19.594H211.663V22.478L214.225 19.594H217.571L214.407 23.108L217.767 27H214.253L211.663 23.892V27H208.891ZM222.672 27V26.006C222.574 26.174 221.888 27.14 220.39 27.14C218.57 27.14 217.142 25.684 217.142 23.29C217.142 20.91 218.57 19.454 220.404 19.454C221.888 19.454 222.504 20.35 222.63 20.518V19.594H225.388V27H222.672ZM222.658 23.29C222.658 22.408 222.126 21.764 221.286 21.764C220.446 21.764 219.914 22.408 219.914 23.29C219.914 24.186 220.446 24.83 221.286 24.83C222.126 24.83 222.658 24.186 222.658 23.29ZM226.529 27V19.594H230.393L231.989 23.318L233.557 19.594H237.351V27H234.677V22.128L232.745 26.986H230.995L229.035 22.128V27H226.529ZM238.493 27V19.594H241.209V23.402L243.897 19.594H246.613V27H243.897V23.192L241.209 27H238.493Z" fill="white"/>
<path d="M43.87 44.508H42.05V47H39.32V44.508H34.42V42.618L38.788 37.06H42.05V42.17H43.87V44.508ZM37.178 42.17H39.32V39.37L37.178 42.17ZM50.7522 44.536L48.7922 47H45.7402L48.5822 43.416C48.3022 43.64 47.8682 43.85 47.1822 43.85C45.3482 43.85 44.1862 42.492 44.1862 40.616C44.1862 38.46 45.7682 36.892 48.2882 36.892C50.7942 36.892 52.4182 38.446 52.4182 40.602C52.4182 42.17 51.8302 43.206 50.7522 44.536ZM46.9862 40.616C46.9862 41.358 47.5042 41.904 48.3022 41.904C49.0862 41.904 49.6182 41.372 49.6182 40.602C49.6182 39.86 49.0862 39.328 48.3022 39.328C47.5042 39.328 46.9862 39.846 46.9862 40.616ZM55.6925 42.352C54.1245 42.352 52.8925 41.162 52.8925 39.622C52.8925 38.096 54.1245 36.892 55.6925 36.892C57.2605 36.892 58.4925 38.096 58.4925 39.622C58.4925 41.162 57.2605 42.352 55.6925 42.352ZM54.4745 47L61.8805 37.06H64.1905L56.7845 47H54.4745ZM55.6925 40.434C56.1825 40.434 56.5045 40.07 56.5045 39.622C56.5045 39.174 56.1825 38.81 55.6925 38.81C55.2025 38.81 54.8805 39.174 54.8805 39.622C54.8805 40.07 55.2025 40.434 55.6925 40.434ZM62.9585 47.196C61.3905 47.196 60.1585 46.006 60.1585 44.466C60.1585 42.94 61.3905 41.736 62.9585 41.736C64.5265 41.736 65.7585 42.94 65.7585 44.466C65.7585 46.006 64.5265 47.196 62.9585 47.196ZM62.9585 45.278C63.4485 45.278 63.7705 44.914 63.7705 44.466C63.7705 44.018 63.4485 43.654 62.9585 43.654C62.4685 43.654 62.1465 44.018 62.1465 44.466C62.1465 44.914 62.4685 45.278 62.9585 45.278Z" fill="white"/>
<path d="M90.828 47V42.554H91.62V44.48L93.96 42.554H95.13L92.502 44.687L95.247 47H94.086L91.62 44.966V47H90.828ZM97.1825 42.446C98.5055 42.446 99.5225 43.454 99.5225 44.777C99.5225 46.1 98.5055 47.108 97.1825 47.108C95.8505 47.108 94.8425 46.1 94.8425 44.777C94.8425 43.454 95.8505 42.446 97.1825 42.446ZM97.1825 46.352C98.0735 46.352 98.6765 45.668 98.6765 44.777C98.6765 43.886 98.0735 43.202 97.1825 43.202C96.2915 43.202 95.6885 43.904 95.6885 44.777C95.6885 45.65 96.2915 46.352 97.1825 46.352ZM99.9796 47V42.554H104.021V47H103.202V43.292H100.799V47H99.9796ZM108.581 47H107.762V45.389H106.439L105.359 47H104.414L105.593 45.281C104.873 45.11 104.549 44.597 104.549 43.94C104.549 43.22 105.035 42.554 106.133 42.554H108.581V47ZM106.232 44.651H107.762V43.292H106.232C105.683 43.292 105.413 43.508 105.413 43.94C105.413 44.381 105.692 44.651 106.232 44.651ZM110.601 47V43.292H108.801V42.554H113.22V43.292H111.42V47H110.601ZM113.425 47V45.722H114.469V47H113.425ZM113.425 43.913V42.635H114.469V43.913H113.425Z" fill="#D5D5D5"/>
<path d="M171.853 42.446C173.176 42.446 174.193 43.454 174.193 44.777C174.193 46.1 173.176 47.108 171.853 47.108C170.521 47.108 169.513 46.1 169.513 44.777C169.513 43.454 170.521 42.446 171.853 42.446ZM171.853 46.352C172.744 46.352 173.347 45.668 173.347 44.777C173.347 43.886 172.744 43.202 171.853 43.202C170.962 43.202 170.359 43.904 170.359 44.777C170.359 45.65 170.962 46.352 171.853 46.352ZM174.65 47V42.554H178.691V47H177.872V43.292H175.469V47H174.65ZM179.481 47V42.554H180.3V45.902L182.883 42.554H183.702V47H182.883V43.625L180.3 47H179.481ZM188.537 43.94H187.709C187.637 43.796 187.304 43.202 186.413 43.202C185.594 43.202 185.009 43.904 185.009 44.777C185.009 45.65 185.594 46.352 186.422 46.352C187.322 46.352 187.655 45.767 187.727 45.614H188.537C188.492 45.929 188.015 47.108 186.422 47.108C185.153 47.108 184.163 46.091 184.163 44.777C184.163 43.463 185.144 42.446 186.413 42.446C188.024 42.446 188.465 43.607 188.537 43.94ZM192.359 47V46.235C192.233 46.46 191.801 47.108 190.784 47.108C189.614 47.108 188.615 46.244 188.615 44.777C188.615 43.337 189.614 42.446 190.784 42.446C191.765 42.446 192.242 43.049 192.359 43.292V42.554H193.178V47H192.359ZM192.377 44.777C192.377 43.886 191.801 43.202 190.937 43.202C190.037 43.202 189.461 43.886 189.461 44.777C189.461 45.668 190.037 46.352 190.937 46.352C191.801 46.352 192.377 45.668 192.377 44.777ZM193.972 47V42.554H194.791V44.372H197.284V42.554H198.103V47H197.284V45.11H194.791V47H193.972ZM198.899 47V42.554H199.718V45.902L202.301 42.554H203.12V47H202.301V43.625L199.718 47H198.899ZM205.84 42.446C207.145 42.446 208.108 43.418 208.108 44.876H204.409C204.454 45.704 205.048 46.352 205.921 46.352C206.812 46.352 207.172 45.875 207.244 45.731H208.054C207.982 46.118 207.415 47.108 205.921 47.108C204.544 47.108 203.581 46.082 203.581 44.777C203.581 43.436 204.544 42.446 205.84 42.446ZM205.84 43.148C205.12 43.148 204.634 43.544 204.463 44.192H207.199C206.992 43.517 206.515 43.148 205.84 43.148ZM208.516 47V45.722H209.56V47H208.516ZM208.516 43.913V42.635H209.56V43.913H208.516Z" fill="#D5D5D5"/>
<path d="M120.6 39.9L123.07 45.66L125.54 39.9H126.99V47H126.07V40.74L123.36 47.04H122.69L120 40.78V47H119.1V39.9H120.6ZM132.328 47V46.15C132.188 46.4 131.708 47.12 130.578 47.12C129.278 47.12 128.168 46.16 128.168 44.53C128.168 42.93 129.278 41.94 130.578 41.94C131.668 41.94 132.198 42.61 132.328 42.88V42.06H133.238V47H132.328ZM132.348 44.53C132.348 43.54 131.708 42.78 130.748 42.78C129.748 42.78 129.108 43.54 129.108 44.53C129.108 45.52 129.748 46.28 130.748 46.28C131.708 46.28 132.348 45.52 132.348 44.53ZM134.62 42.06H135.53V46.18H137.84V42.06H138.75V46.18H141.06V42.06H141.97V47H134.62V42.06ZM147.148 47V46.15C147.008 46.4 146.528 47.12 145.398 47.12C144.098 47.12 142.988 46.16 142.988 44.53C142.988 42.93 144.098 41.94 145.398 41.94C146.488 41.94 147.018 42.61 147.148 42.88V42.06H148.058V47H147.148ZM147.168 44.53C147.168 43.54 146.528 42.78 145.568 42.78C144.568 42.78 143.928 43.54 143.928 44.53C143.928 45.52 144.568 46.28 145.568 46.28C146.528 46.28 147.168 45.52 147.168 44.53ZM149.9 49.14H149.16C149.52 48.54 149.89 47.81 149.92 47H149.38V45.58H150.54V46.92C150.54 47.81 150.19 48.63 149.9 49.14ZM119.1 59V51.9H122.79C124.36 51.9 125.18 52.64 125.18 53.95C125.18 55.2 124.36 56.04 122.79 56.04H120.07V59H119.1ZM122.82 52.8H120.07V55.14H122.82C123.74 55.14 124.18 54.65 124.18 53.97C124.18 53.22 123.74 52.8 122.82 52.8ZM126.077 59V54.06H126.987V57.78L129.857 54.06H130.767V59H129.857V55.25L126.987 59H126.077ZM133.509 59V54.88H131.509V54.06H136.419V54.88H134.419V59H133.509ZM137.137 59V54.06H138.017V56.2L140.617 54.06H141.917L138.997 56.43L142.047 59H140.757L138.017 56.74V59H137.137ZM146.267 59V58.15C146.127 58.4 145.647 59.12 144.517 59.12C143.217 59.12 142.107 58.16 142.107 56.53C142.107 54.93 143.217 53.94 144.517 53.94C145.607 53.94 146.137 54.61 146.267 54.88V54.06H147.177V59H146.267ZM146.287 56.53C146.287 55.54 145.647 54.78 144.687 54.78C143.687 54.78 143.047 55.54 143.047 56.53C143.047 57.52 143.687 58.28 144.687 58.28C145.647 58.28 146.287 57.52 146.287 56.53ZM149.019 61.14H148.279C148.639 60.54 149.009 59.81 149.039 59H148.499V57.58H149.659V58.92C149.659 59.81 149.309 60.63 149.019 61.14ZM124.65 71L123.86 69.29H120.08L119.29 71H118.33L121.61 63.86H122.38L125.67 71H124.65ZM120.48 68.41H123.46L121.97 65.17L120.48 68.41ZM126.438 71V66.06H127.348V68.08H130.118V66.06H131.028V71H130.118V68.9H127.348V71H126.438ZM136.603 71H135.693V69.21H134.223L133.023 71H131.973L133.283 69.09C132.483 68.9 132.123 68.33 132.123 67.6C132.123 66.8 132.663 66.06 133.883 66.06H136.603V71ZM133.993 68.39H135.693V66.88H133.993C133.383 66.88 133.083 67.12 133.083 67.6C133.083 68.09 133.393 68.39 133.993 68.39Z" fill="white"/>
<path d="M220.1 46.1V40.8H216.73L216.4 43.94C216.29 44.87 216.14 45.66 215.91 46.1H220.1ZM215.9 39.9H221.07V46.1H222.17V48.61H221.3V47H214.97V48.61H214.1V46.1H214.89C215.2 45.63 215.37 44.83 215.48 43.87L215.9 39.9ZM224.949 41.94C226.399 41.94 227.469 43.02 227.469 44.64H223.359C223.409 45.56 224.069 46.28 225.039 46.28C226.029 46.28 226.429 45.75 226.509 45.59H227.409C227.329 46.02 226.699 47.12 225.039 47.12C223.509 47.12 222.439 45.98 222.439 44.53C222.439 43.04 223.509 41.94 224.949 41.94ZM224.949 42.72C224.149 42.72 223.609 43.16 223.419 43.88H226.459C226.229 43.13 225.699 42.72 224.949 42.72ZM228.432 47V42.06H231.032C231.962 42.06 232.732 42.45 232.732 43.36C232.732 43.99 232.362 44.33 231.992 44.45C232.462 44.57 232.892 44.91 232.892 45.54C232.892 46.42 232.162 47 231.042 47H228.432ZM231.032 42.86H229.342V44.08H231.032C231.502 44.08 231.832 43.89 231.832 43.44C231.832 43.08 231.542 42.86 231.032 42.86ZM231.062 44.88H229.342V46.2H231.052C231.642 46.2 231.942 45.97 231.942 45.5C231.942 45.15 231.672 44.88 231.062 44.88ZM236.217 41.94C237.687 41.94 238.817 43.06 238.817 44.53C238.817 46 237.687 47.12 236.217 47.12C234.737 47.12 233.617 46 233.617 44.53C233.617 43.06 234.737 41.94 236.217 41.94ZM236.217 46.28C237.207 46.28 237.877 45.52 237.877 44.53C237.877 43.54 237.207 42.78 236.217 42.78C235.227 42.78 234.557 43.56 234.557 44.53C234.557 45.5 235.227 46.28 236.217 46.28ZM243.166 47V45.12C243.046 45.15 242.916 45.17 242.766 45.19C242.516 45.22 242.166 45.25 241.736 45.25C240.376 45.25 239.636 44.73 239.636 43.36V42.06H240.546V43.26C240.546 44.03 240.806 44.44 241.736 44.44C242.166 44.44 242.526 44.41 242.776 44.38L243.166 44.32V42.06H244.076V47H243.166ZM245.438 47V42.06H246.318V44.2L248.918 42.06H250.218L247.298 44.43L250.348 47H249.058L246.318 44.74V47H245.438ZM250.866 47V42.06H251.776V45.78L254.646 42.06H255.556V47H254.646V43.25L251.776 47H250.866ZM257.398 49.14H256.658C257.018 48.54 257.388 47.81 257.418 47H256.878V45.58H258.038V46.92C258.038 47.81 257.688 48.63 257.398 49.14ZM262.864 47V42.88H260.864V42.06H265.774V42.88H263.774V47H262.864ZM270.117 47V46.15C269.977 46.4 269.497 47.12 268.367 47.12C267.067 47.12 265.957 46.16 265.957 44.53C265.957 42.93 267.067 41.94 268.367 41.94C269.457 41.94 269.987 42.61 270.117 42.88V42.06H271.027V47H270.117ZM270.137 44.53C270.137 43.54 269.497 42.78 268.537 42.78C267.537 42.78 266.897 43.54 266.897 44.53C266.897 45.52 267.537 46.28 268.537 46.28C269.497 46.28 270.137 45.52 270.137 44.53ZM272.409 47V42.06H273.619L275.589 45.95L277.559 42.06H278.729V47H277.839V43.12L275.859 47.03H275.229L273.269 43.16V47H272.409ZM214.94 59V54.06H216.15L218.12 57.95L220.09 54.06H221.26V59H220.37V55.12L218.39 59.03H217.76L215.8 55.16V59H214.94ZM224.873 53.94C226.343 53.94 227.473 55.06 227.473 56.53C227.473 58 226.343 59.12 224.873 59.12C223.393 59.12 222.273 58 222.273 56.53C222.273 55.06 223.393 53.94 224.873 53.94ZM224.873 58.28C225.863 58.28 226.533 57.52 226.533 56.53C226.533 55.54 225.863 54.78 224.873 54.78C223.883 54.78 223.213 55.56 223.213 56.53C223.213 57.5 223.883 58.28 224.873 58.28ZM229.381 58.2V61.24H228.481V54.06H229.381V54.91C229.491 54.66 230.071 53.94 231.181 53.94C232.501 53.94 233.611 54.9 233.611 56.53C233.611 58.17 232.501 59.12 231.181 59.12C230.101 59.12 229.491 58.44 229.381 58.2ZM229.361 56.53C229.361 57.52 230.021 58.28 231.021 58.28C232.021 58.28 232.681 57.52 232.681 56.53C232.681 55.54 232.021 54.78 231.021 54.78C230.021 54.78 229.361 55.54 229.361 56.53ZM236.771 53.94C238.221 53.94 239.291 55.02 239.291 56.64H235.181C235.231 57.56 235.891 58.28 236.861 58.28C237.851 58.28 238.251 57.75 238.331 57.59H239.231C239.151 58.02 238.521 59.12 236.861 59.12C235.331 59.12 234.261 57.98 234.261 56.53C234.261 55.04 235.331 53.94 236.771 53.94ZM236.771 54.72C235.971 54.72 235.431 55.16 235.241 55.88H238.281C238.051 55.13 237.521 54.72 236.771 54.72ZM242.401 59V54.06H243.311V57.78L246.181 54.06H247.091V59H246.181V55.25L243.311 59H242.401ZM250.78 59V51.9H256.34V52.8H251.74V54.78H254.49V55.68H251.74V58.1H256.74V59H250.78ZM257.59 59V54.06H261.27V54.88H258.5V59H257.59ZM264.047 53.94C265.517 53.94 266.647 55.06 266.647 56.53C266.647 58 265.517 59.12 264.047 59.12C262.567 59.12 261.447 58 261.447 56.53C261.447 55.06 262.567 53.94 264.047 53.94ZM264.047 58.28C265.037 58.28 265.707 57.52 265.707 56.53C265.707 55.54 265.037 54.78 264.047 54.78C263.057 54.78 262.387 55.56 262.387 56.53C262.387 57.5 263.057 58.28 264.047 58.28ZM268.555 58.2V61.24H267.655V54.06H268.555V54.91C268.665 54.66 269.245 53.94 270.355 53.94C271.675 53.94 272.785 54.9 272.785 56.53C272.785 58.17 271.675 59.12 270.355 59.12C269.275 59.12 268.665 58.44 268.555 58.2ZM268.535 56.53C268.535 57.52 269.195 58.28 270.195 58.28C271.195 58.28 271.855 57.52 271.855 56.53C271.855 55.54 271.195 54.78 270.195 54.78C269.195 54.78 268.535 55.54 268.535 56.53ZM215.1 71V63.9H216.07V67.18L220.16 63.9H221.53L217.18 67.38L221.71 71H220.32L216.07 67.7V71H215.1ZM223.143 70.2V73.24H222.243V66.06H223.143V66.91C223.253 66.66 223.833 65.94 224.943 65.94C226.263 65.94 227.373 66.9 227.373 68.53C227.373 70.17 226.263 71.12 224.943 71.12C223.863 71.12 223.253 70.44 223.143 70.2ZM223.123 68.53C223.123 69.52 223.783 70.28 224.783 70.28C225.783 70.28 226.443 69.52 226.443 68.53C226.443 67.54 225.783 66.78 224.783 66.78C223.783 66.78 223.123 67.54 223.123 68.53ZM228.393 71V66.06H229.303V69.78L232.173 66.06H233.083V71H232.173V67.25L229.303 71H228.393ZM237.825 70.18V66.88H235.805L235.675 67.98C235.525 69.13 235.415 69.77 235.145 70.18H237.825ZM234.485 72.49H233.675V70.18H234.265C234.575 69.78 234.715 69.14 234.865 67.91L235.075 66.06H238.735V70.18H239.635V72.49H238.825V71H234.485V72.49ZM240.515 68.68V63.9H241.415V68.68H240.515ZM240.385 71V69.58H241.545V71H240.385ZM243.375 68.68V63.9H244.275V68.68H243.375ZM243.245 71V69.58H244.405V71H243.245ZM246.234 68.68V63.9H247.134V68.68H246.234ZM246.104 71V69.58H247.264V71H246.104Z" fill="white"/>
<path d="M31 104H284" stroke="#DFE0E5" stroke-width="13" stroke-linecap="round"/>
<path d="M31 104H165" stroke="url(#paint0_linear_121_1678)" stroke-width="13" stroke-linecap="round"/>
<g filter="url(#filter1_d_121_1678)">
<circle cx="162" cy="104" r="4" fill="white"/>
</g>
<path d="M254.128 83.956L250.576 91H247.888L251.224 84.592H247.408V82.48H254.128V83.956ZM261.579 88.924V91H254.679V89.38L257.991 86.512C258.507 86.044 258.747 85.744 258.747 85.276C258.747 84.808 258.459 84.46 257.895 84.46C257.355 84.46 257.043 84.856 257.043 85.396V85.804H254.703V85.324C254.703 83.68 255.807 82.336 257.895 82.336C260.007 82.336 261.183 83.464 261.183 85.156C261.183 86.476 260.439 87.232 259.371 88.132L258.435 88.924H261.579ZM268.1 82.312C270.248 82.312 271.52 83.572 271.52 85.54V87.94C271.52 89.908 270.248 91.168 268.1 91.168C265.952 91.168 264.68 89.908 264.68 87.94V85.54C264.68 83.572 265.952 82.312 268.1 82.312ZM268.1 89.008C268.784 89.008 269.12 88.54 269.12 87.868V85.612C269.12 84.94 268.784 84.472 268.1 84.472C267.416 84.472 267.08 84.94 267.08 85.612V87.868C267.08 88.54 267.416 89.008 268.1 89.008ZM276.046 82.312C278.194 82.312 279.466 83.572 279.466 85.54V87.94C279.466 89.908 278.194 91.168 276.046 91.168C273.898 91.168 272.626 89.908 272.626 87.94V85.54C272.626 83.572 273.898 82.312 276.046 82.312ZM276.046 89.008C276.73 89.008 277.066 88.54 277.066 87.868V85.612C277.066 84.94 276.73 84.472 276.046 84.472C275.362 84.472 275.026 84.94 275.026 85.612V87.868C275.026 88.54 275.362 89.008 276.046 89.008ZM283.992 82.312C286.14 82.312 287.412 83.572 287.412 85.54V87.94C287.412 89.908 286.14 91.168 283.992 91.168C281.844 91.168 280.572 89.908 280.572 87.94V85.54C280.572 83.572 281.844 82.312 283.992 82.312ZM283.992 89.008C284.676 89.008 285.012 88.54 285.012 87.868V85.612C285.012 84.94 284.676 84.472 283.992 84.472C283.308 84.472 282.972 84.94 282.972 85.612V87.868C282.972 88.54 283.308 89.008 283.992 89.008Z" fill="white"/>
<path d="M34.404 88.48C34.404 90.076 33.096 91.144 30.888 91.144C28.38 91.144 27.384 89.536 27.324 88.384H29.748C29.784 88.576 30.072 89.056 30.876 89.056C31.596 89.056 31.956 88.756 31.956 88.324C31.956 87.892 31.728 87.676 31.26 87.676H29.472V85.636H31.056C31.5 85.636 31.716 85.456 31.716 85.084C31.716 84.64 31.392 84.376 30.78 84.376C30.048 84.376 29.832 84.832 29.796 84.988H27.42C27.456 83.74 28.524 82.336 30.78 82.336C32.928 82.336 34.14 83.2 34.14 84.844C34.14 85.732 33.576 86.26 33.06 86.452C33.684 86.644 34.404 87.22 34.404 88.48ZM35.2936 87.448V82.48H41.5576V84.4H37.5376V85.624C37.7776 85.336 38.3176 85 39.1336 85C40.6936 85 41.8816 86.116 41.8816 87.928C41.8816 89.752 40.6456 91.144 38.3896 91.144C35.8816 91.144 34.8856 89.536 34.8856 88.24H37.3216C37.3576 88.528 37.6936 89.032 38.3896 89.032C39.0256 89.032 39.4576 88.552 39.4576 87.964C39.4576 87.328 39.0616 86.896 38.3896 86.896C37.7896 86.896 37.5256 87.292 37.4656 87.448H35.2936ZM51.9395 88.924V91H45.0395V89.38L48.3515 86.512C48.8675 86.044 49.1075 85.744 49.1075 85.276C49.1075 84.808 48.8195 84.46 48.2555 84.46C47.7155 84.46 47.4035 84.856 47.4035 85.396V85.804H45.0635V85.324C45.0635 83.68 46.1675 82.336 48.2555 82.336C50.3675 82.336 51.5435 83.464 51.5435 85.156C51.5435 86.476 50.7995 87.232 49.7315 88.132L48.7955 88.924H51.9395ZM59.359 88.684C59.359 90.172 58.147 91.144 56.023 91.144H55.651C53.527 91.144 52.315 90.172 52.315 88.684C52.315 87.436 53.119 86.824 53.695 86.632C53.191 86.44 52.447 85.9 52.447 84.712C52.447 83.308 53.587 82.336 55.663 82.336H56.011C58.087 82.336 59.227 83.308 59.227 84.712C59.227 85.9 58.483 86.44 57.979 86.632C58.555 86.824 59.359 87.436 59.359 88.684ZM55.891 84.16H55.783C55.219 84.16 54.835 84.448 54.835 84.976C54.835 85.492 55.219 85.792 55.783 85.792H55.891C56.455 85.792 56.839 85.492 56.839 84.976C56.839 84.448 56.455 84.16 55.891 84.16ZM55.915 87.568H55.759C55.195 87.568 54.763 87.88 54.763 88.444C54.763 89.008 55.195 89.32 55.759 89.32H55.915C56.479 89.32 56.911 89.008 56.911 88.444C56.911 87.88 56.479 87.568 55.915 87.568ZM63.6167 82.312C65.7647 82.312 67.0367 83.572 67.0367 85.54V87.94C67.0367 89.908 65.7647 91.168 63.6167 91.168C61.4687 91.168 60.1967 89.908 60.1967 87.94V85.54C60.1967 83.572 61.4687 82.312 63.6167 82.312ZM63.6167 89.008C64.3007 89.008 64.6367 88.54 64.6367 87.868V85.612C64.6367 84.94 64.3007 84.472 63.6167 84.472C62.9327 84.472 62.5967 84.94 62.5967 85.612V87.868C62.5967 88.54 62.9327 89.008 63.6167 89.008Z" fill="white"/>
<path d="M81 161.5C81 178.897 67.1208 193 50 193C32.8792 193 19 178.897 19 161.5C19 144.103 32.8792 130 50 130C67.1208 130 81 144.103 81 161.5ZM29.0581 161.5C29.0581 173.252 38.4341 182.78 50 182.78C61.5659 182.78 70.9419 173.252 70.9419 161.5C70.9419 149.748 61.5659 140.22 50 140.22C38.4341 140.22 29.0581 149.748 29.0581 161.5Z" fill="#B0BCFE"/>
<path d="M50 135.11C50 132.288 52.3036 129.957 55.0864 130.427C57.4063 130.819 59.6802 131.479 61.8632 132.398C65.6243 133.981 69.0417 136.301 71.9203 139.226C74.7989 142.151 77.0824 145.624 78.6403 149.445C80.1982 153.267 81 157.363 81 161.5C81 165.637 80.1982 169.733 78.6403 173.555C77.0824 177.376 74.7989 180.849 71.9203 183.774C69.0417 186.699 65.6243 189.019 61.8632 190.602C59.6802 191.521 57.4062 192.181 55.0863 192.573C52.3035 193.043 50 190.712 50 187.89C50 185.068 52.3219 182.842 55.058 182.15C56.0639 181.895 57.0521 181.565 58.0141 181.16C60.5549 180.09 62.8635 178.523 64.8081 176.547C66.7528 174.571 68.2954 172.225 69.3478 169.643C70.4002 167.062 70.9419 164.294 70.9419 161.5C70.9419 158.706 70.4002 155.938 69.3478 153.357C68.2954 150.775 66.7528 148.429 64.8082 146.453C62.8635 144.477 60.5549 142.91 58.0141 141.84C57.0521 141.435 56.0639 141.105 55.0581 140.85C52.3219 140.158 50 137.932 50 135.11Z" fill="#EF3124"/>
<g filter="url(#filter2_d_121_1678)">
<ellipse cx="55.5" cy="188" rx="3.5" ry="3" fill="white"/>
</g>
<path d="M98.162 147V143.276H93.92V147H91.05V137.06H93.92V140.784H98.162V137.06H101.032V147H98.162ZM107.56 147V146.006C107.462 146.174 106.776 147.14 105.278 147.14C103.458 147.14 102.03 145.684 102.03 143.29C102.03 140.91 103.458 139.454 105.292 139.454C106.776 139.454 107.392 140.35 107.518 140.518V139.594H110.276V147H107.56ZM107.546 143.29C107.546 142.408 107.014 141.764 106.174 141.764C105.334 141.764 104.802 142.408 104.802 143.29C104.802 144.186 105.334 144.83 106.174 144.83C107.014 144.83 107.546 144.186 107.546 143.29ZM114.289 147V139.594H118.153L119.749 143.318L121.317 139.594H125.111V147H122.437V142.128L120.505 146.986H118.755L116.795 142.128V147H114.289ZM129.949 139.398C132.413 139.398 133.995 140.868 133.995 143.29V143.864H128.605C128.731 144.606 129.277 145.124 130.103 145.124C130.761 145.124 131.097 144.872 131.195 144.746H133.925C133.813 145.754 132.665 147.196 130.103 147.196C127.457 147.196 125.875 145.6 125.875 143.29C125.875 140.896 127.527 139.398 129.949 139.398ZM129.949 141.316C129.235 141.316 128.773 141.694 128.619 142.31H131.279C131.125 141.694 130.635 141.316 129.949 141.316ZM139.629 147V144.746L139.181 144.788C138.901 144.83 138.523 144.83 138.089 144.83C135.793 144.83 134.589 143.976 134.589 141.61V139.594H137.333V141.582C137.333 142.324 137.571 142.618 138.425 142.618C138.775 142.618 139.083 142.604 139.293 142.59L139.629 142.548V139.594H142.373V147H139.629ZM145.677 147V141.834H143.017V139.594H151.081V141.834H148.421V147H145.677ZM159.789 139.594L155.743 149.702H152.999L154.105 146.93L150.787 139.594H153.895L155.463 143.472L157.003 139.594H159.789Z" fill="white"/>
<path d="M42.778 164.578V167H34.728V165.11L38.592 161.764C39.194 161.218 39.474 160.868 39.474 160.322C39.474 159.776 39.138 159.37 38.48 159.37C37.85 159.37 37.486 159.832 37.486 160.462V160.938H34.756V160.378C34.756 158.46 36.044 156.892 38.48 156.892C40.944 156.892 42.316 158.208 42.316 160.182C42.316 161.722 41.448 162.604 40.202 163.654L39.11 164.578H42.778ZM50.9162 158.782L46.7722 167H43.6362L47.5282 159.524H43.0762V157.06H50.9162V158.782ZM54.1475 162.352C52.5795 162.352 51.3475 161.162 51.3475 159.622C51.3475 158.096 52.5795 156.892 54.1475 156.892C55.7155 156.892 56.9475 158.096 56.9475 159.622C56.9475 161.162 55.7155 162.352 54.1475 162.352ZM52.9295 167L60.3355 157.06H62.6455L55.2395 167H52.9295ZM54.1475 160.434C54.6375 160.434 54.9595 160.07 54.9595 159.622C54.9595 159.174 54.6375 158.81 54.1475 158.81C53.6575 158.81 53.3355 159.174 53.3355 159.622C53.3355 160.07 53.6575 160.434 54.1475 160.434ZM61.4135 167.196C59.8455 167.196 58.6135 166.006 58.6135 164.466C58.6135 162.94 59.8455 161.736 61.4135 161.736C62.9815 161.736 64.2135 162.94 64.2135 164.466C64.2135 166.006 62.9815 167.196 61.4135 167.196ZM61.4135 165.278C61.9035 165.278 62.2255 164.914 62.2255 164.466C62.2255 164.018 61.9035 163.654 61.4135 163.654C60.9235 163.654 60.6015 164.018 60.6015 164.466C60.6015 164.914 60.9235 165.278 61.4135 165.278Z" fill="white"/>
<path d="M90.828 169V164.554H91.62V166.48L93.96 164.554H95.13L92.502 166.687L95.247 169H94.086L91.62 166.966V169H90.828ZM97.1825 164.446C98.5055 164.446 99.5225 165.454 99.5225 166.777C99.5225 168.1 98.5055 169.108 97.1825 169.108C95.8505 169.108 94.8425 168.1 94.8425 166.777C94.8425 165.454 95.8505 164.446 97.1825 164.446ZM97.1825 168.352C98.0735 168.352 98.6765 167.668 98.6765 166.777C98.6765 165.886 98.0735 165.202 97.1825 165.202C96.2915 165.202 95.6885 165.904 95.6885 166.777C95.6885 167.65 96.2915 168.352 97.1825 168.352ZM99.9796 169V164.554H104.021V169H103.202V165.292H100.799V169H99.9796ZM108.581 169H107.762V167.389H106.439L105.359 169H104.414L105.593 167.281C104.873 167.11 104.549 166.597 104.549 165.94C104.549 165.22 105.035 164.554 106.133 164.554H108.581V169ZM106.232 166.651H107.762V165.292H106.232C105.683 165.292 105.413 165.508 105.413 165.94C105.413 166.381 105.692 166.651 106.232 166.651ZM110.601 169V165.292H108.801V164.554H113.22V165.292H111.42V169H110.601ZM113.425 169V167.722H114.469V169H113.425ZM113.425 165.913V164.635H114.469V165.913H113.425Z" fill="#D5D5D5"/>
<path d="M171.853 164.446C173.176 164.446 174.193 165.454 174.193 166.777C174.193 168.1 173.176 169.108 171.853 169.108C170.521 169.108 169.513 168.1 169.513 166.777C169.513 165.454 170.521 164.446 171.853 164.446ZM171.853 168.352C172.744 168.352 173.347 167.668 173.347 166.777C173.347 165.886 172.744 165.202 171.853 165.202C170.962 165.202 170.359 165.904 170.359 166.777C170.359 167.65 170.962 168.352 171.853 168.352ZM174.65 169V164.554H178.691V169H177.872V165.292H175.469V169H174.65ZM179.481 169V164.554H180.3V167.902L182.883 164.554H183.702V169H182.883V165.625L180.3 169H179.481ZM188.537 165.94H187.709C187.637 165.796 187.304 165.202 186.413 165.202C185.594 165.202 185.009 165.904 185.009 166.777C185.009 167.65 185.594 168.352 186.422 168.352C187.322 168.352 187.655 167.767 187.727 167.614H188.537C188.492 167.929 188.015 169.108 186.422 169.108C185.153 169.108 184.163 168.091 184.163 166.777C184.163 165.463 185.144 164.446 186.413 164.446C188.024 164.446 188.465 165.607 188.537 165.94ZM192.359 169V168.235C192.233 168.46 191.801 169.108 190.784 169.108C189.614 169.108 188.615 168.244 188.615 166.777C188.615 165.337 189.614 164.446 190.784 164.446C191.765 164.446 192.242 165.049 192.359 165.292V164.554H193.178V169H192.359ZM192.377 166.777C192.377 165.886 191.801 165.202 190.937 165.202C190.037 165.202 189.461 165.886 189.461 166.777C189.461 167.668 190.037 168.352 190.937 168.352C191.801 168.352 192.377 167.668 192.377 166.777ZM193.972 169V164.554H194.791V166.372H197.284V164.554H198.103V169H197.284V167.11H194.791V169H193.972ZM198.899 169V164.554H199.718V167.902L202.301 164.554H203.12V169H202.301V165.625L199.718 169H198.899ZM205.84 164.446C207.145 164.446 208.108 165.418 208.108 166.876H204.409C204.454 167.704 205.048 168.352 205.921 168.352C206.812 168.352 207.172 167.875 207.244 167.731H208.054C207.982 168.118 207.415 169.108 205.921 169.108C204.544 169.108 203.581 168.082 203.581 166.777C203.581 165.436 204.544 164.446 205.84 164.446ZM205.84 165.148C205.12 165.148 204.634 165.544 204.463 166.192H207.199C206.992 165.517 206.515 165.148 205.84 165.148ZM208.516 169V167.722H209.56V169H208.516ZM208.516 165.913V164.635H209.56V165.913H208.516Z" fill="#D5D5D5"/>
<path d="M120.6 161.9L123.07 167.66L125.54 161.9H126.99V169H126.07V162.74L123.36 169.04H122.69L120 162.78V169H119.1V161.9H120.6ZM132.328 169V168.15C132.188 168.4 131.708 169.12 130.578 169.12C129.278 169.12 128.168 168.16 128.168 166.53C128.168 164.93 129.278 163.94 130.578 163.94C131.668 163.94 132.198 164.61 132.328 164.88V164.06H133.238V169H132.328ZM132.348 166.53C132.348 165.54 131.708 164.78 130.748 164.78C129.748 164.78 129.108 165.54 129.108 166.53C129.108 167.52 129.748 168.28 130.748 168.28C131.708 168.28 132.348 167.52 132.348 166.53ZM134.62 164.06H135.53V168.18H137.84V164.06H138.75V168.18H141.06V164.06H141.97V169H134.62V164.06ZM147.148 169V168.15C147.008 168.4 146.528 169.12 145.398 169.12C144.098 169.12 142.988 168.16 142.988 166.53C142.988 164.93 144.098 163.94 145.398 163.94C146.488 163.94 147.018 164.61 147.148 164.88V164.06H148.058V169H147.148ZM147.168 166.53C147.168 165.54 146.528 164.78 145.568 164.78C144.568 164.78 143.928 165.54 143.928 166.53C143.928 167.52 144.568 168.28 145.568 168.28C146.528 168.28 147.168 167.52 147.168 166.53ZM149.9 171.14H149.16C149.52 170.54 149.89 169.81 149.92 169H149.38V167.58H150.54V168.92C150.54 169.81 150.19 170.63 149.9 171.14ZM119.1 181V173.9H120.07V179.7L124.52 173.9H125.49V181H124.52V175.18L120.07 181H119.1ZM127.444 178.8L127.714 176.06H131.394V181H130.484V176.88H128.444L128.254 178.86C128.104 180.38 127.714 181.07 126.664 181.07H126.394V180.25H126.514C127.194 180.25 127.334 179.92 127.444 178.8ZM133.684 177.65H135.184C136.554 177.65 137.154 178.37 137.154 179.31C137.154 180.19 136.554 181 135.194 181H132.774V176.06H133.684V177.65ZM135.084 178.47H133.684V180.18H135.084C135.804 180.18 136.194 179.91 136.194 179.31C136.194 178.79 135.804 178.47 135.084 178.47ZM142.226 181H141.316V179.21H139.846L138.646 181H137.596L138.906 179.09C138.106 178.9 137.746 178.33 137.746 177.6C137.746 176.8 138.286 176.06 139.506 176.06H142.226V181ZM139.616 178.39H141.316V176.88H139.616C139.006 176.88 138.706 177.12 138.706 177.6C138.706 178.09 139.016 178.39 139.616 178.39Z" fill="white"/>
<path d="M217.06 169H216.06L217.48 166.79L214.25 161.9H215.37L218.03 165.94L220.63 161.9H221.63L217.06 169ZM224.37 169V164.06H225.28V166.08H228.05V164.06H228.96V169H228.05V166.9H225.28V169H224.37ZM234.144 169V168.15C234.004 168.4 233.524 169.12 232.394 169.12C231.094 169.12 229.984 168.16 229.984 166.53C229.984 164.93 231.094 163.94 232.394 163.94C233.484 163.94 234.014 164.61 234.144 164.88V164.06H235.054V169H234.144ZM234.164 166.53C234.164 165.54 233.524 164.78 232.564 164.78C231.564 164.78 230.924 165.54 230.924 166.53C230.924 167.52 231.564 168.28 232.564 168.28C233.524 168.28 234.164 167.52 234.164 166.53ZM240.926 165.6H240.006C239.926 165.44 239.556 164.78 238.566 164.78C237.656 164.78 237.006 165.56 237.006 166.53C237.006 167.5 237.656 168.28 238.576 168.28C239.576 168.28 239.946 167.63 240.026 167.46H240.926C240.876 167.81 240.346 169.12 238.576 169.12C237.166 169.12 236.066 167.99 236.066 166.53C236.066 165.07 237.156 163.94 238.566 163.94C240.356 163.94 240.846 165.23 240.926 165.6ZM244.02 169V164.06H246.62C247.55 164.06 248.32 164.45 248.32 165.36C248.32 165.99 247.95 166.33 247.58 166.45C248.05 166.57 248.48 166.91 248.48 167.54C248.48 168.42 247.75 169 246.63 169H244.02ZM246.62 164.86H244.93V166.08H246.62C247.09 166.08 247.42 165.89 247.42 165.44C247.42 165.08 247.13 164.86 246.62 164.86ZM246.65 166.88H244.93V168.2H246.64C247.23 168.2 247.53 167.97 247.53 167.5C247.53 167.15 247.26 166.88 246.65 166.88ZM254.065 165.6H253.145C253.065 165.44 252.695 164.78 251.705 164.78C250.795 164.78 250.145 165.56 250.145 166.53C250.145 167.5 250.795 168.28 251.715 168.28C252.715 168.28 253.085 167.63 253.165 167.46H254.065C254.015 167.81 253.485 169.12 251.715 169.12C250.305 169.12 249.205 167.99 249.205 166.53C249.205 165.07 250.295 163.94 251.705 163.94C253.495 163.94 253.985 165.23 254.065 165.6ZM257.152 163.94C258.602 163.94 259.672 165.02 259.672 166.64H255.562C255.612 167.56 256.272 168.28 257.242 168.28C258.232 168.28 258.632 167.75 258.712 167.59H259.612C259.532 168.02 258.902 169.12 257.242 169.12C255.712 169.12 254.642 167.98 254.642 166.53C254.642 165.04 255.712 163.94 257.152 163.94ZM257.152 164.72C256.352 164.72 255.812 165.16 255.622 165.88H258.662C258.432 165.13 257.902 164.72 257.152 164.72ZM255.752 163.11V161.72H256.672V163.11H255.752ZM257.632 163.11V161.72H258.552V163.11H257.632ZM214.94 181V176.06H219.43V181H218.52V176.88H215.85V181H214.94ZM223.037 175.94C224.507 175.94 225.637 177.06 225.637 178.53C225.637 180 224.507 181.12 223.037 181.12C221.557 181.12 220.437 180 220.437 178.53C220.437 177.06 221.557 175.94 223.037 175.94ZM223.037 180.28C224.027 180.28 224.697 179.52 224.697 178.53C224.697 177.54 224.027 176.78 223.037 176.78C222.047 176.78 221.377 177.56 221.377 178.53C221.377 179.5 222.047 180.28 223.037 180.28ZM226.909 178.8L227.179 176.06H230.859V181H229.949V176.88H227.909L227.719 178.86C227.569 180.38 227.179 181.07 226.129 181.07H225.859V180.25H225.979C226.659 180.25 226.799 179.92 226.909 178.8ZM236.879 176.06L233.639 183.24H232.709L233.769 180.89L231.529 176.06H232.559L234.249 179.82L235.939 176.06H236.879ZM240.939 181V179.12C240.819 179.15 240.689 179.17 240.539 179.19C240.289 179.22 239.939 179.25 239.509 179.25C238.149 179.25 237.409 178.73 237.409 177.36V176.06H238.319V177.26C238.319 178.03 238.579 178.44 239.509 178.44C239.939 178.44 240.299 178.41 240.549 178.38L240.939 178.32V176.06H241.849V181H240.939ZM243.231 181V176.06H244.141V179.78L247.011 176.06H247.921V181H247.011V177.25L244.141 181H243.231ZM250.663 181V176.88H248.663V176.06H253.573V176.88H251.573V181H250.663ZM258.606 177.6H257.686C257.606 177.44 257.236 176.78 256.246 176.78C255.336 176.78 254.686 177.56 254.686 178.53C254.686 179.5 255.336 180.28 256.256 180.28C257.256 180.28 257.626 179.63 257.706 179.46H258.606C258.556 179.81 258.026 181.12 256.256 181.12C254.846 181.12 253.746 179.99 253.746 178.53C253.746 177.07 254.836 175.94 256.246 175.94C258.036 175.94 258.526 177.23 258.606 177.6ZM263.743 181H262.833V179.21H261.363L260.163 181H259.113L260.423 179.09C259.623 178.9 259.263 178.33 259.263 177.6C259.263 176.8 259.803 176.06 261.023 176.06H263.743V181ZM261.133 178.39H262.833V176.88H261.133C260.523 176.88 260.223 177.12 260.223 177.6C260.223 178.09 260.533 178.39 261.133 178.39Z" fill="white"/>
<path d="M31 224H284" stroke="#DFE0E5" stroke-width="13" stroke-linecap="round"/>
<path d="M31 224H106" stroke="url(#paint1_linear_121_1678)" stroke-width="13" stroke-linecap="round"/>
<g filter="url(#filter3_d_121_1678)">
<circle cx="103" cy="224" r="4" fill="white"/>
</g>
<path d="M245.86 202.444V211H243.46V205.084L241.396 206.236V204.016L244.06 202.444H245.86ZM253.868 208.924V211H246.968V209.38L250.28 206.512C250.796 206.044 251.036 205.744 251.036 205.276C251.036 204.808 250.748 204.46 250.184 204.46C249.644 204.46 249.332 204.856 249.332 205.396V205.804H246.992V205.324C246.992 203.68 248.096 202.336 250.184 202.336C252.296 202.336 253.472 203.464 253.472 205.156C253.472 206.476 252.728 207.232 251.66 208.132L250.724 208.924H253.868ZM257.928 202.312C260.076 202.312 261.348 203.572 261.348 205.54V207.94C261.348 209.908 260.076 211.168 257.928 211.168C255.78 211.168 254.508 209.908 254.508 207.94V205.54C254.508 203.572 255.78 202.312 257.928 202.312ZM257.928 209.008C258.612 209.008 258.948 208.54 258.948 207.868V205.612C258.948 204.94 258.612 204.472 257.928 204.472C257.244 204.472 256.908 204.94 256.908 205.612V207.868C256.908 208.54 257.244 209.008 257.928 209.008ZM268.335 202.312C270.483 202.312 271.755 203.572 271.755 205.54V207.94C271.755 209.908 270.483 211.168 268.335 211.168C266.187 211.168 264.915 209.908 264.915 207.94V205.54C264.915 203.572 266.187 202.312 268.335 202.312ZM268.335 209.008C269.019 209.008 269.355 208.54 269.355 207.868V205.612C269.355 204.94 269.019 204.472 268.335 204.472C267.651 204.472 267.315 204.94 267.315 205.612V207.868C267.315 208.54 267.651 209.008 268.335 209.008ZM276.281 202.312C278.429 202.312 279.701 203.572 279.701 205.54V207.94C279.701 209.908 278.429 211.168 276.281 211.168C274.133 211.168 272.861 209.908 272.861 207.94V205.54C272.861 203.572 274.133 202.312 276.281 202.312ZM276.281 209.008C276.965 209.008 277.301 208.54 277.301 207.868V205.612C277.301 204.94 276.965 204.472 276.281 204.472C275.597 204.472 275.261 204.94 275.261 205.612V207.868C275.261 208.54 275.597 209.008 276.281 209.008ZM284.227 202.312C286.375 202.312 287.647 203.572 287.647 205.54V207.94C287.647 209.908 286.375 211.168 284.227 211.168C282.079 211.168 280.807 209.908 280.807 207.94V205.54C280.807 203.572 282.079 202.312 284.227 202.312ZM284.227 209.008C284.911 209.008 285.247 208.54 285.247 207.868V205.612C285.247 204.94 284.911 204.472 284.227 204.472C283.543 204.472 283.207 204.94 283.207 205.612V207.868C283.207 208.54 283.543 209.008 284.227 209.008Z" fill="white"/>
<path d="M34.404 208.48C34.404 210.076 33.096 211.144 30.888 211.144C28.38 211.144 27.384 209.536 27.324 208.384H29.748C29.784 208.576 30.072 209.056 30.876 209.056C31.596 209.056 31.956 208.756 31.956 208.324C31.956 207.892 31.728 207.676 31.26 207.676H29.472V205.636H31.056C31.5 205.636 31.716 205.456 31.716 205.084C31.716 204.64 31.392 204.376 30.78 204.376C30.048 204.376 29.832 204.832 29.796 204.988H27.42C27.456 203.74 28.524 202.336 30.78 202.336C32.928 202.336 34.14 203.2 34.14 204.844C34.14 205.732 33.576 206.26 33.06 206.452C33.684 206.644 34.404 207.22 34.404 208.48ZM41.9776 208.924V211H35.0776V209.38L38.3896 206.512C38.9056 206.044 39.1456 205.744 39.1456 205.276C39.1456 204.808 38.8576 204.46 38.2936 204.46C37.7536 204.46 37.4416 204.856 37.4416 205.396V205.804H35.1016V205.324C35.1016 203.68 36.2056 202.336 38.2936 202.336C40.4056 202.336 41.5816 203.464 41.5816 205.156C41.5816 206.476 40.8376 207.232 39.7696 208.132L38.8336 208.924H41.9776ZM52.7466 208.864H51.1866V211H48.8466V208.864H44.6466V207.244L48.3906 202.48H51.1866V206.86H52.7466V208.864ZM47.0106 206.86H48.8466V204.46L47.0106 206.86ZM56.8428 202.312C58.9908 202.312 60.2628 203.572 60.2628 205.54V207.94C60.2628 209.908 58.9908 211.168 56.8428 211.168C54.6948 211.168 53.4228 209.908 53.4228 207.94V205.54C53.4228 203.572 54.6948 202.312 56.8428 202.312ZM56.8428 209.008C57.5268 209.008 57.8628 208.54 57.8628 207.868V205.612C57.8628 204.94 57.5268 204.472 56.8428 204.472C56.1588 204.472 55.8228 204.94 55.8228 205.612V207.868C55.8228 208.54 56.1588 209.008 56.8428 209.008ZM64.7886 202.312C66.9366 202.312 68.2086 203.572 68.2086 205.54V207.94C68.2086 209.908 66.9366 211.168 64.7886 211.168C62.6406 211.168 61.3686 209.908 61.3686 207.94V205.54C61.3686 203.572 62.6406 202.312 64.7886 202.312ZM64.7886 209.008C65.4726 209.008 65.8086 208.54 65.8086 207.868V205.612C65.8086 204.94 65.4726 204.472 64.7886 204.472C64.1046 204.472 63.7686 204.94 63.7686 205.612V207.868C63.7686 208.54 64.1046 209.008 64.7886 209.008Z" fill="white"/>
</g>
<defs>
<filter id="filter0_d_121_1678" x="49" y="62" width="15" height="14" filterUnits="userSpaceOnUse" color-interpolation-filters="sRGB">
<feFlood flood-opacity="0" result="BackgroundImageFix"/>
<feColorMatrix in="SourceAlpha" type="matrix" values="0 0 0 0 0 0 0 0 0 0 0 0 0 0 0 0 0 0 127 0" result="hardAlpha"/>
<feOffset dx="1" dy="1"/>
<feGaussianBlur stdDeviation="2"/>
<feComposite in2="hardAlpha" operator="out"/>
<feColorMatrix type="matrix" values="0 0 0 0 0.756863 0 0 0 0 0.764706 0 0 0 0 0.92549 0 0 0 0.56 0"/>
<feBlend mode="normal" in2="BackgroundImageFix" result="effect1_dropShadow_121_1678"/>
<feBlend mode="normal" in="SourceGraphic" in2="effect1_dropShadow_121_1678" result="shape"/>
</filter>
<filter id="filter1_d_121_1678" x="155" y="97" width="16" height="16" filterUnits="userSpaceOnUse" color-interpolation-filters="sRGB">
<feFlood flood-opacity="0" result="BackgroundImageFix"/>
<feColorMatrix in="SourceAlpha" type="matrix" values="0 0 0 0 0 0 0 0 0 0 0 0 0 0 0 0 0 0 127 0" result="hardAlpha"/>
<feOffset dx="1" dy="1"/>
<feGaussianBlur stdDeviation="2"/>
<feComposite in2="hardAlpha" operator="out"/>
<feColorMatrix type="matrix" values="0 0 0 0 0.756863 0 0 0 0 0.764706 0 0 0 0 0.92549 0 0 0 0.56 0"/>
<feBlend mode="normal" in2="BackgroundImageFix" result="effect1_dropShadow_121_1678"/>
<feBlend mode="normal" in="SourceGraphic" in2="effect1_dropShadow_121_1678" result="shape"/>
</filter>
<filter id="filter2_d_121_1678" x="49" y="182" width="15" height="14" filterUnits="userSpaceOnUse" color-interpolation-filters="sRGB">
<feFlood flood-opacity="0" result="BackgroundImageFix"/>
<feColorMatrix in="SourceAlpha" type="matrix" values="0 0 0 0 0 0 0 0 0 0 0 0 0 0 0 0 0 0 127 0" result="hardAlpha"/>
<feOffset dx="1" dy="1"/>
<feGaussianBlur stdDeviation="2"/>
<feComposite in2="hardAlpha" operator="out"/>
<feColorMatrix type="matrix" values="0 0 0 0 0.756863 0 0 0 0 0.764706 0 0 0 0 0.92549 0 0 0 0.56 0"/>
<feBlend mode="normal" in2="BackgroundImageFix" result="effect1_dropShadow_121_1678"/>
<feBlend mode="normal" in="SourceGraphic" in2="effect1_dropShadow_121_1678" result="shape"/>
</filter>
<filter id="filter3_d_121_1678" x="96" y="217" width="16" height="16" filterUnits="userSpaceOnUse" color-interpolation-filters="sRGB">
<feFlood flood-opacity="0" result="BackgroundImageFix"/>
<feColorMatrix in="SourceAlpha" type="matrix" values="0 0 0 0 0 0 0 0 0 0 0 0 0 0 0 0 0 0 127 0" result="hardAlpha"/>
<feOffset dx="1" dy="1"/>
<feGaussianBlur stdDeviation="2"/>
<feComposite in2="hardAlpha" operator="out"/>
<feColorMatrix type="matrix" values="0 0 0 0 0.756863 0 0 0 0 0.764706 0 0 0 0 0.92549 0 0 0 0.56 0"/>
<feBlend mode="normal" in2="BackgroundImageFix" result="effect1_dropShadow_121_1678"/>
<feBlend mode="normal" in="SourceGraphic" in2="effect1_dropShadow_121_1678" result="shape"/>
</filter>
<linearGradient id="paint0_linear_121_1678" x1="31" y1="104.5" x2="165" y2="104.5" gradientUnits="userSpaceOnUse">
<stop stop-color="#C1C3EC"/>
<stop offset="1" stop-color="#EF3124"/>
</linearGradient>
<linearGradient id="paint1_linear_121_1678" x1="31" y1="224.5" x2="106" y2="224.5" gradientUnits="userSpaceOnUse">
<stop stop-color="#C1C3EC"/>
<stop offset="1" stop-color="#EF3124"/>
</linearGradient>
<clipPath id="clip0_121_1678">
<rect width="330" height="251" rx="20" fill="white"/>
</clipPath>
</defs>
</svg>
