<svg width="28" height="28" viewBox="0 0 28 28" fill="none" xmlns="http://www.w3.org/2000/svg">
<path d="M1.2592 24.4158C0.50402 25.2219 0.545287 26.4876 1.35137 27.2428C2.15746 27.9979 3.42312 27.9567 4.1783 27.1506L1.2592 24.4158ZM26.9989 1.93482C26.9629 0.830841 26.0388 -0.0349337 24.9348 0.00106162L6.94439 0.587649C5.8404 0.623644 4.97463 1.54778 5.01062 2.65176C5.04662 3.75575 5.97076 4.62152 7.07474 4.58552L23.0662 4.06411L23.5876 20.0556C23.6236 21.1596 24.5478 22.0254 25.6518 21.9894C26.7557 21.9534 27.6215 21.0292 27.5855 19.9253L26.9989 1.93482ZM4.1783 27.1506L26.4596 3.36738L23.5405 0.632625L1.2592 24.4158L4.1783 27.1506Z" fill="black"/>
</svg>
