<svg width="14" height="14" viewBox="0 0 14 14" fill="none" xmlns="http://www.w3.org/2000/svg">
<path d="M1.24902 12.0323C0.865593 12.4298 0.877001 13.0629 1.2745 13.4463C1.672 13.8297 2.30506 13.8183 2.68848 13.4208L1.24902 12.0323ZM13.4776 1.81384C13.4676 1.26165 13.0119 0.82207 12.4597 0.832021L3.46118 0.994186C2.90898 1.00414 2.46941 1.45985 2.47936 2.01204C2.48931 2.56424 2.94502 3.00381 3.49721 2.99386L11.4959 2.84971L11.6401 10.8484C11.65 11.4006 12.1057 11.8402 12.6579 11.8302C13.2101 11.8203 13.6497 11.3646 13.6397 10.8124L13.4776 1.81384ZM2.68848 13.4208L13.1975 2.52611L11.758 1.13761L1.24902 12.0323L2.68848 13.4208Z" fill="#EF3128"/>
</svg>
